<svg xmlns="http://www.w3.org/2000/svg" viewBox="0 0 264 290"><path fill="#b14f28" stroke="#b14f28" d="M132.109 10.5c-2.9 2.475-5.798 4.564-6.441 4.643-.642.078-4.831.191-9.308.25-9.323.123-10.473.792-15.901 9.253-3.412 5.319-5.336 6.405-13.924 7.856-7.992 1.35-12.632 5.43-14.635 12.869-1.779 6.605-4.31 9.315-10.336 11.067-7.016 2.04-10.091 5.624-10.989 12.807-.883 7.071-3.51 11.175-9.556 14.934-6.204 3.857-7.527 7.286-6.568 17.022l.686 6.961-4.998 5.284c-5.83 6.165-7.089 10.345-4.78 15.87 2.763 6.613 12.357 9.882 18.052 6.151 1.949-1.277 3.322-1.353 8.214-.451 9.227 1.7 10.195 1.852 22.375 3.522 12.341 1.693 16.32 2.475 15.706 3.089-.212.213-7.096-.513-15.296-1.613-8.201-1.1-16.035-1.967-17.41-1.928-2.291.066-2.029.285 1.749 1.461.946.295.829 1.269-.479 4.014l-1.729 3.624-13.721-.499-13.722-.498-.364 5.156-.364 5.156-.185-5.25c-.172-4.884-.359-5.25-2.685-5.25s-2.513.365-2.68 5.25l-.18 5.25-.377-4.807-.377-4.807-3.693.307c-3.377.281-3.72.591-4.011 3.622-.175 1.824.192 3.931.816 4.682.914 1.102.492 1.428-2.182 1.685-2.543.244-3.316.784-3.316 2.318 0 1.82.853 2.05 9.5 2.559 6.861.403 7.923.611 3.823.75-4.465.15-5.774.564-6.134 1.941-.435 1.667-.463 1.667-.573 0-.069-1.045-.922-1.75-2.116-1.75-2.916 0-3.156 56.402-.25 58.608 1.641 1.246 1.626 1.332-.25 1.392-1.876.06-1.891.146-.25 1.392 2.259 1.715 2.46 8.608.25 8.608-.825 0-1.5.45-1.5 1s.627 1 1.393 1c1.603 0 2.607 2.127 2.607 5.523 0 1.297.45 2.637 1 2.977.55.34 1 1.097 1 1.681 0 .671-.554.604-1.5-.181-.825-.685-1.5-2.765-1.5-4.622 0-2.753-.384-3.378-2.077-3.378-1.791 0-2.031.516-1.75 3.75.284 3.265.03 3.792-1.967 4.075-2.165.307-2.277.7-2 7L7.5 258.5l4.75.305c6.316.405 6.112 2.195-.25 2.195-4.372 0-5 .257-5 2.048 0 1.874.522 2.022 6.146 1.75 6.221-.302 6.739-.627 8.437-5.298l.727-2 .46 2c.669 2.9 2.05 3.468 8.48 3.485L37 263v-3.351c0-16.502 18.505-26.792 32.578-18.115 6.05 3.73 10.364 10.877 10.399 17.228l.023 4.262 37.25-.262 37.25-.262.987-2.25c.543-1.238 1.748-2.25 2.677-2.25s1.875-.788 2.103-1.75c.294-1.244.644-.883 1.211 1.25 1.469 5.525 1.374 5.5 21.144 5.5H201l.006-2.75c.045-22.338 28.356-29.383 38.377-9.55 1.718 3.401 2.218 8.79.73 7.87-.487-.301-1.164-2.027-1.503-3.835-3.252-17.333-31.885-16.778-35.16.682-4.094 21.82 24.439 31.796 34.16 11.943 2.001-4.086 2.915-5.036 4.459-4.632 2.761.722 5.184-1.626 4.636-4.493-.326-1.703-.149-2.079.619-1.311.592.592 2.824 1.076 4.961 1.076h3.885l-.272-8.25c-.164-4.988.198-9.114.915-10.434 2.372-4.365.728-10.316-2.848-10.316-1.298 0-1.965.679-1.965 2 0 1.873-.667 2-10.5 2H231v-8h10.941c6.215 0 11.208-.432 11.559-1 .34-.55.093-1-.548-1s-.92-.642-.618-1.427c.805-2.098-.882-3.052-10.584-5.989l-8.75-2.648v-13.911c0-12.135-.225-14.078-1.765-15.218-.971-.719-2.301-2.52-2.954-4.003-.881-1.998-2.171-2.874-4.985-3.382-5.869-1.06-6.755-1.864-8.642-7.85l-1.759-5.579-5.982.135c-3.291.074-6.267-.149-6.615-.496-.347-.348 2.625-.632 6.605-.632 6.932 0 7.223-.095 6.917-2.25-.316-2.222-.536-2.253-17.611-2.524-12.575-.199-17.396-.608-17.677-1.5-.213-.674-2.279-8.201-4.592-16.726-2.313-8.525-5.009-18.425-5.991-22-.982-3.575-4.506-16.625-7.832-29-3.327-12.375-8.119-29.475-10.65-38-2.531-8.525-4.838-16.451-5.125-17.614-.35-1.413.314-2.951 2.001-4.638C153.136 20.955 148.586 6 139.725 6c-1.331 0-4.623 1.945-7.616 4.5m28.97 94.083c.048 1.165.285 1.402.604.605.289-.722.253-1.585-.079-1.917-.332-.332-.568.258-.525 1.312m1 4c.048 1.165.285 1.402.604.605.289-.722.253-1.585-.079-1.917-.332-.332-.568.258-.525 1.312m2.007 7.917c.104 1.894 1.77 5.084 1.828 3.5.031-.825-.381-2.175-.914-3-.533-.825-.945-1.05-.914-.5M65.13 140.79c-.628.209-.909.759-.624 1.22.286.462.018 1.94-.595 3.285-.913 2.005-.78 2.832.738 4.593 1.018 1.181 2.076 3.233 2.351 4.56l.5 2.411 49.304.388c27.117.213 49.478.105 49.691-.239.213-.345-10.274-2.323-23.304-4.396-66.325-10.555-77.008-12.173-78.061-11.822m28.62 1.872c.688.278 1.813.278 2.5 0 .688-.277.125-.504-1.25-.504s-1.937.227-1.25.504m6.519 1.031c.973.254 2.323.237 3-.037.677-.274-.119-.481-1.769-.461-1.65.02-2.204.244-1.231.498m7.481.969c.688.278 1.813.278 2.5 0 .688-.277.125-.504-1.25-.504s-1.937.227-1.25.504m7.063 1.021c.721.289 1.584.253 1.916-.079.332-.332-.258-.568-1.312-.525-1.165.048-1.402.285-.604.604M209 167.559c0 .857.457 1.276 1.016.931.559-.346.758-1.047.441-1.559-.857-1.387-1.457-1.129-1.457.628M16.435 196c0 14.025.14 19.763.312 12.75.172-7.012.172-18.487 0-25.5-.172-7.012-.312-1.275-.312 12.75m186.269-17.896c.791.791 1.626.799 2.95.03 1.618-.941 1.482-1.077-1.104-1.104-2.151-.022-2.651.269-1.846 1.074m11.296-.372c3.658.673 4.691 1.847 6.681 7.595 1.564 4.521 1.832 4.828 2.12 2.434.181-1.507 1.259-3.39 2.396-4.186 1.136-.796 1.82-2.088 1.52-2.871-.617-1.607-8.155-3.774-12.41-3.568-2.706.131-2.717.153-.307.596m-48.837 5.146c-.736.467-1.186 1.922-1 3.235l.337 2.387 15.75.275 15.75.276v12.415c0 12.544.664 14.887 3.544 12.498 2.243-1.862 2.128-30.492-.126-31.357-2.425-.931-32.738-.691-34.255.271m42.551-.259c-1.609 1.609-.669 5.448 1.54 6.288 1.692.643 3.357 3.642 6.671 12.017 5.947 15.029 7.022 16.35 6.976 8.576-.025-4.279-1.091-9.012-3.718-16.5-3.683-10.5-3.683-10.5-7.219-10.798-1.944-.163-3.857.024-4.25.417M194.5 222c-1.666.716-1.448.871 1.309.93 1.966.041 3.058-.336 2.691-.93-.72-1.166-1.287-1.166-4 0m-16.75 2.775-15.75.276V233l9.5.083c5.225.046 11.075.084 13 .084 1.925 0 6.875-.038 11-.084L203 233v-4c0-2.503-.468-4.022-1.25-4.058-.687-.031-2.825-.144-4.75-.25-1.925-.105-10.588-.068-19.25.083M17 229v4H58.349l-2.175-2.314c-1.196-1.273-2.174-3.073-2.174-4 0-2.09-.926-2.126-3.751-.148-3.226 2.259-11.57 2.386-13.972.212-1.529-1.383-3.751-1.75-10.606-1.75H17v4m55.91.067L69.319 233H160v-8l-41.75.067-41.75.068-3.59 3.932M205 229v4h24v-8h-24v4m-107.333-2.333c-1.021 1.02-.793 4.333.298 4.333 1.257 0 3.153-3.549 2.333-4.369-.815-.815-1.794-.802-2.631.036m4.727.75c-.828 2.157.323 4.844 1.857 4.333.687-.229 1.249-1.467 1.249-2.75 0-2.741-2.227-3.876-3.106-1.583m5.758-.531c-1.977 1.252-.985 4.614 1.362 4.614 1.433 0 1.986-.672 1.986-2.417 0-2.667-1.28-3.506-3.348-2.197m5.515-.219c-.367.366-.667 1.716-.667 3 0 2.753 3.415 3.301 4.41.706.968-2.521-1.995-5.455-3.743-3.706m7.333 1.75c0 1.421.45 2.583 1 2.583s1-.675 1-1.5.034-1.826.075-2.225c.041-.399-.409-.886-1-1.083-.591-.197-1.075.804-1.075 2.225m4.688-1.771c-1.417 1.416-.615 4.14 1.371 4.659 1.736.454 2.01.131 1.75-2.056-.31-2.607-1.841-3.884-3.121-2.603m5.375 1.545c-.077 3.299 1.48 4.43 3.643 2.645 1.272-1.049 1.71-1.068 2.04-.086.231.688 1.113 1.25 1.96 1.25 1.288 0 1.325-.257.231-1.576-1.068-1.287-1.071-1.723-.016-2.375.842-.521.931-1.022.255-1.44-.571-.353-1.308-.204-1.639.331-.331.535-1.222.734-1.982.443-.799-.307-1.563.238-1.815 1.294-.373 1.56-.592 1.463-1.524-.677l-1.089-2.5-.064 2.691m34.181-.941c.472 1.437 5.899 2.182 9.435 1.294 4.078-1.023 1.495-2.544-4.321-2.544-3.972 0-5.409.351-5.114 1.25m-23.857 1.918c.078 1.506.813 2.219 2.407 2.336 1.608.118 2.131-.256 1.75-1.25-.299-.78-.544-1.831-.544-2.336 0-.505-.839-.918-1.863-.918-1.28 0-1.828.679-1.75 2.168M17 236c0 .615 5 1 13 1 11.989 0 16.013.907 11.577 2.609-.782.3-1.707 1.288-2.055 2.195-.476 1.24-.061 1.123 1.672-.473 1.269-1.166 3.881-3.067 5.806-4.222l3.5-2.102-16.75-.003c-10.502-.003-16.75.369-16.75.996m50.683.285c2.77 1.542 92.317 1.245 92.317-.305 0-.627-17.038-.967-47.25-.945-37.611.029-46.805.284-45.067 1.25M162 236c0 .955 11.06 1.317 30.75 1.006 9.022-.142 8.92-.203 6.724 4.044-.839 1.622-1.305 2.95-1.035 2.95.842 0 2.877-4.373 3.137-6.741l.248-2.259h-19.912c-12.608 0-19.912.367-19.912 1m41.571-.114c-.957 1.548 4.804 1.983 7.418.561 2.426-1.321 2.352-1.368-2.18-1.407-2.58-.022-4.937.359-5.238.846M231.5 236c.345.558 5.01 1 10.559 1 5.961 0 9.941-.4 9.941-1 0-.604-4.186-1-10.559-1-6.785 0-10.338.357-9.941 1m-71.421 3.583c.048 1.165.285 1.402.604.605.289-.722.253-1.585-.079-1.917-.332-.332-.568.258-.525 1.312M56.5 241.494c-.55.182-2.229.602-3.732.933-9.395 2.07-15.239 14.724-11.23 24.319C49.266 285.241 77 279.41 77 259.29c0-9.546-12.541-20.433-20.5-17.796M80.08 248c1.458 3.061 1.92 3.628 1.92 2.358 0-.537-.7-1.849-1.555-2.917-1.467-1.83-1.487-1.798-.365.559m-28.974 3.901c-2.561 2.393-3.103 3.664-3.091 7.25.011 2.909.308 3.887.899 2.953.486-.767 1.605-1.119 2.485-.781 1.139.437 1.601.037 1.601-1.386 0-1.1-.675-2.259-1.5-2.575-2.055-.789-1.881-2.707.437-4.805 2.064-1.868 4.063-1.375 4.063 1.002 0 2.95 3.756 1.56 4.213-1.559.625-4.259-4.593-4.316-9.107-.099m164.011-1.27c-2.279 1.596-5.117 6.96-5.117 9.67 0 .851 1.131 1.366 3 1.366 2.476 0 3-.408 3-2.334 0-1.407-.595-2.333-1.5-2.333-2.144 0-1.852-2.372.561-4.555 2.002-1.812 3.867-.954 3.924 1.805.05 2.443 3.835.429 4.228-2.25.409-2.784.217-3-2.664-3-1.707 0-4.152.734-5.432 1.631M65.063 254.94c-1.05.664-1.183 1.477-.493 3.023 1.221 2.736 4.959.578 3.877-2.239-.747-1.948-1.331-2.083-3.384-.784m162.594.322c-1.452 1.061-1.52 1.543-.43 3.034 1.697 2.321 5.264.146 4.22-2.572-.788-2.055-1.494-2.141-3.79-.462m-170.321 4.305c-.834 2.172 1.282 4.215 2.797 2.7 1.28-1.28.487-4.267-1.133-4.267-.585 0-1.333.705-1.664 1.567m162.774-.2c-.864 1.042-.764 1.675.42 2.658 1.911 1.586 4.044-.086 3.134-2.458-.741-1.93-2.056-2.004-3.554-.2m-157.032 5.039c-1.41 1.699-.66 3.594 1.422 3.594 2.165 0 2.884-2.044 1.282-3.646-1.272-1.272-1.61-1.266-2.704.052m163 0c-1.41 1.699-.66 3.594 1.422 3.594 2.165 0 2.884-2.044 1.282-3.646-1.272-1.272-1.61-1.266-2.704.052m-172.779 2.486c-1.331 2.132-.778 3.108 1.761 3.108 2.172 0 3.443-3.064 1.724-4.155-1.837-1.165-2.165-1.066-3.485 1.047m162.813-.101c-1.895 3.54 2.489 4.679 4.656 1.209.687-1.1.832-2 .322-2-.509 0-1.604-.26-2.432-.578-.894-.343-1.927.213-2.546 1.369" fill-rule="evenodd"/><path fill="#f78709" stroke="#f78709" d="M137.5 6.954c-1.1.455-3.125 2.044-4.5 3.532-4.325 4.678-7.556 5.795-14.589 5.041-8.395-.899-12.514 1.032-16.932 7.938-4.339 6.784-5.162 7.364-12.664 8.934-11.187 2.34-15.236 5.913-17.242 15.21-.92 4.266-5.126 7.926-10.968 9.544-6.08 1.683-8.336 4.549-9.576 12.166-1.232 7.574-3.997 11.875-10.015 15.578-5.942 3.655-7.104 6.875-6.303 17.461l.555 7.338-3.692 2.815c-8.961 6.835-9.013 18.162-.104 22.474 4.962 2.403 7.076 2.5 10.904.504 2.859-1.491 11.972-1.629 14.259-.216.608.376 4.571.773 8.807.882 7.41.191 7.794.088 10.095-2.728 1.928-2.358 2.4-2.573 2.429-1.106.02 1.002-.715 2.573-1.633 3.491-1.937 1.937-2.498 1.805 33.419 7.865 11.688 1.972 21.25 4.007 21.25 4.522 0 .515-.787.706-1.75.426-3.378-.984-38.487-5.726-40.099-5.416-.897.173 5.34 1.373 13.86 2.668a3096.243 3096.243 0 0 1 29.489 4.648c7.7 1.263 18.95 3.067 25 4.01 6.05.944 11.427 2.109 11.95 2.59.544.501-21.158.875-50.75.875H67v-2.365c0-1.301-.945-3.567-2.1-5.035-1.451-1.845-1.907-3.437-1.476-5.155.616-2.453-.779-6.445-2.253-6.445-.417 0-1.449 1.897-2.294 4.215l-1.537 4.215-8.917-.309c-4.904-.169-9.291-.54-9.749-.823-.459-.283-.712 1.773-.564 4.57.149 2.797-.04 5.396-.42 5.775-.379.38-.69-1.95-.69-5.176 0-4.309-.296-5.571-1.113-4.754-.613.613-.938 2.953-.724 5.2.214 2.248.04 4.087-.387 4.087S34 153.75 34 151c0-6.633-1.795-6.435-2.263.25l-.367 5.25-.185-5.25c-.104-2.96-.654-5.25-1.259-5.25-.657 0-.972 1.933-.81 4.977.145 2.737-.046 5.287-.426 5.666-.379.38-.69-1.86-.69-4.976 0-7.138-1.939-7.509-2.175-.417l-.174 5.25-.389-4.5c-.605-7.009-2.234-7.309-2.442-.45-.175 5.758-.193 5.795-.557 1.147-.408-5.199-1.634-6.323-5.765-5.286-2.613.656-3.687 5.736-1.498 7.089 2.221 1.373.961 3.5-2.073 3.5-2.389 0-2.999.39-2.737 1.75.52 2.7 203.095 2.723 203.615.023.303-1.575-1.224-1.75-17.389-2l-17.721-.273-6.887-25c-7.712-27.997-10.193-37.123-14.365-52.848-1.583-5.966-3.028-10.396-3.212-9.844-.184.552 4.215 18.854 9.776 40.671 5.561 21.816 9.958 40.126 9.771 40.687-.301.904-5.107-15.618-6.448-22.166-.282-1.375-1.146-3.918-1.921-5.651-.775-1.733-1.409-4.681-1.409-6.55 0-1.87-.5-3.899-1.11-4.509-1.303-1.303-3.952-11.162-4.439-16.517-.331-3.646-1.701-9.248-10.921-44.681-5.13-19.712-5.223-20.487-2.689-22.285 6.561-4.656 4.977-19.025-2.407-21.832-1.41-.536-2.647-.946-2.749-.912-.102.035-1.085.436-2.185.891m-27.51 26.11a355.078 355.078 0 0 0-5.99 5.197C99.343 42.432 88.562 50 87.277 50c-.702 0-1.277.689-1.277 1.531 0 .843-.787 1.831-1.75 2.197-.963.366-3.325 2.318-5.25 4.339-1.925 2.021-4.542 4.214-5.815 4.874-1.861.964-2.082 1.478-1.127 2.629 1.688 2.034 1.867 1.952 7.77-3.578C82.759 59.246 85.624 57 86.195 57c.571 0 .803-.9.515-2-.378-1.448-.03-2 1.261-2 .981 0 2.366-.701 3.077-1.558.711-.857 2.797-2.186 4.636-2.955 1.839-.768 3.611-2.092 3.937-2.942.326-.85 1.163-1.545 1.86-1.545.697 0 2.87-1.468 4.828-3.261 1.958-1.794 4.76-4.227 6.227-5.407 1.917-1.543 2.425-2.579 1.806-3.686-.731-1.306-1.393-1.09-4.352 1.418m41.089 26.519c.048 1.165.285 1.402.604.605.289-.722.253-1.585-.079-1.917-.332-.332-.568.258-.525 1.312m1 4c.048 1.165.285 1.402.604.605.289-.722.253-1.585-.079-1.917-.332-.332-.568.258-.525 1.312M82.75 142.662c.688.278 1.813.278 2.5 0 .688-.277.125-.504-1.25-.504s-1.937.227-1.25.504m49.418 5.839c.622.623 20.593 3.5 23.332 3.361 2.322-.117-17.812-3.679-21.417-3.788-1.329-.041-2.191.152-1.915.427m27.645 4.182c.721.289 1.584.253 1.916-.079.332-.332-.258-.568-1.312-.525-1.165.048-1.402.285-.604.604M12.688 163.646c-.379.378-.688 13.437-.688 29.021 0 26.872.095 28.333 1.845 28.333 1.731 0 1.851-1.285 1.947-20.75.15-30.333.157-30.634.771-30.02.31.31.532 11.86.493 25.667L16.985 221h7.949c4.531 0 8.23.457 8.605 1.062.446.723-2.173 1.022-8.191.934-12.935-.187-13.231-.158-11.098 1.084 2.297 1.338 2.509 8.92.25 8.92-.825 0-1.5.45-1.5 1s.655 1 1.455 1c.907 0 1.68 1.41 2.054 3.75.33 2.063 1.026 4.531 1.546 5.486 1.464 2.69 1.092 4.542-.492 2.452-1.036-1.366-2.445-1.735-5.719-1.5L7.5 245.5l-.316 4.42c-.558 7.818.194 9.08 5.418 9.08 6.191 0 5.398 2.392-.93 2.805-7.105.463-6.458 3.195.757 3.195 5.823 0 8.571-1.626 8.571-5.071 0-1.061.625-1.929 1.389-1.929s1.326.788 1.25 1.75c-.118 1.481.897 1.795 6.611 2.046l6.75.295v-3.98c0-5.322 1.474-8.925 5.311-12.983 13.09-13.843 35.214-6.458 38.29 12.78l.655 4.092h36.872c35.763 0 36.872-.058 36.872-1.93 0-1.241.804-2.045 2.25-2.25 2.162-.308 2.25-.711 2.25-10.32v-10l-45.191-.164c-40.627-.147-50.438-.541-49.012-1.966 1.049-1.049 94.124-.307 94.781.756.482.78.865.775 1.356-.019.408-.66 4.397-1.169 9.875-1.26l9.191-.153-9.156-.976-9.155-.975-.395-3.385c-.605-5.18-.293-5.284 16.749-5.609l15.957-.304-16.25-.222c-10.018-.138-16.25-.606-16.25-1.223 0-.634 7.5-1 20.5-1 11.275 0 20.531-.338 20.569-.75.667-7.261 1.931-9.497 1.931-3.417V221h11.441c6.549 0 11.705.428 12.059 1 .399.645-3.629 1-11.358 1-8.643 0-12.116-.348-12.483-1.25-.382-.942-.713-.962-1.342-.081-.459.642-2.406 1.358-4.326 1.59l-3.491.421 3.805.16 3.805.16-.305 4.669-.305 4.67-6.311.224c-8.524.304-9.2 1.437-.856 1.437 8.134 0 8.574 1.392 3.167 10-4.06 6.463-4.539 5.984-1-1 1.375-2.713 2.5-5.349 2.5-5.856 0-.527-8.075-.954-18.878-.998l-18.878-.076-.465 3.715c-.578 4.606-.315 11.377.657 16.965l.74 4.25H201l.006-2.75c.024-12.246 11.569-22.631 22.949-20.645 8.477 1.479 16.343 9.16 17.213 16.808.486 4.263-1.807 4.326-2.605.071-2.124-11.323-18.134-17.297-27.599-10.299-17.09 12.635-2.108 39.608 17.244 31.047 4.803-2.124 9.205-7.004 10.309-11.427.556-2.229 1.305-2.748 4.328-3 3.897-.325 3.947-.46 2.733-7.305l-.532-3 1.181 2.782c1.193 2.81 4.085 4.187 7.444 3.546 2.952-.564 3.31-14.828.373-14.828-1.131 0-2.044-.656-2.044-1.469 0-.807.563-1.262 1.25-1.01 3.814 1.398 5.875-6.824 2.546-10.154-2.265-2.264-3.796-.874-3.794 3.442l.002 3.691-10.502-.314c-13.425-.402-13.786-2.186-.443-2.186 5.532 0 9.827-.375 9.544-.833-.283-.459-1.89-.632-3.571-.385-1.68.247-5.975.136-9.544-.246l-6.488-.695V224.066l11.25-.319 11.25-.319-11.309-.214c-14.231-.269-14.347-2.214-.132-2.214 12.253 0 12.546-1.102 1.191-4.49-4.812-1.435-9.312-2.799-10-3.029-.923-.309-1.25-4.193-1.25-14.843 0-11.512-.286-14.534-1.415-14.967-.778-.298-2.02-1.807-2.761-3.352-1.06-2.212-2.38-3.029-6.205-3.84-4.772-1.013-4.899-1.138-7.082-7.005-2.112-5.675-2.406-5.99-5.88-6.284-2.105-.179-3.657.139-3.657.75 0 .583 1.139 1.06 2.531 1.06 2.818 0 4.352 2.517 2.602 4.267-.844.844-1.133.699-1.133-.567 0-1.282-.877-1.7-3.567-1.7-3.113 0-3.487-.255-2.933-2 .621-1.957.18-2-20.433-2H161v14h42v-3c0-1.65.45-3 1-3s1 1.35 1 3v3l7.75.1c9.186.118 12.179.825 13.655 3.226.864 1.406.726 1.991-.655 2.777-1.136.647-1.75 2.207-1.75 4.447 0 5.141-1.462 4.189-3.92-2.55l-2.187-6H205v5.7c0 6.991-1.741 6.037-2.19-1.2l-.31-5h-41l.086 4.25c.048 2.338-.29 4.25-.75 4.25s-.836-5.403-.836-12.008v-12.007l-71.599.028c-62.769.026-71.529.212-71.031 1.508.342.892-.016 1.479-.901 1.479-.808 0-1.356-.506-1.219-1.125.295-1.326-1.571-2.221-2.562-1.229m9.327 2.104c.045 2.192 1.955 3.647 1.97 1.5.008-1.238-.435-2.25-.985-2.25s-.993.338-.985.75m8.574 12.106c-.291.47.583.643 1.941.383 1.359-.26 2.47-.645 2.47-.856 0-.773-3.899-.356-4.411.473m57.161-.108c7.837.169 20.662.169 28.5 0 7.837-.169 1.425-.307-14.25-.307s-22.088.138-14.25.307m52.5-.013c2.613.206 6.887.206 9.5 0 2.613-.206.475-.375-4.75-.375s-7.363.169-4.75.375m24.439 4.909c-.379.379-.689 1.953-.689 3.497v2.808l15.75.276 15.75.275.28 12.816c.276 12.596.319 12.81 2.5 12.5 2.188-.311 2.22-.55 2.22-16.316v-16l-17.561-.272c-9.659-.15-17.871.037-18.25.416M207 185.208c0 2.456.573 3.574 2.206 4.305 1.592.712 3.57 4.395 7.11 13.237 5.906 14.753 8.328 16.474 7.387 5.248-.323-3.85-.945-7.563-1.382-8.25-.437-.686-1.995-4.848-3.463-9.248l-2.669-8-4.594-.305-4.595-.305v3.318m-46.812 18.842.189 16.45.585-15.5c.322-8.525.237-15.928-.189-16.45-.425-.522-.688 6.452-.585 15.5m-13.109-6.467c.048 1.165.285 1.402.604.605.289-.722.253-1.585-.079-1.917-.332-.332-.568.258-.525 1.312m-72.617 1.536c-.873 2.752.774 4.334 2.176 2.09.809-1.297.755-2.053-.214-2.957-1.036-.968-1.435-.792-1.962.867m-6.276 7.083c-.041 3.515.165 4.014 1.132 2.736.65-.859 1.969-1.857 2.932-2.219.963-.361 1.75-1.147 1.75-1.747 0-.599-.478-.794-1.063-.433-.585.361-1.881-.084-2.881-.989-1.731-1.566-1.821-1.438-1.87 2.652m-13.37 6.142c-3.084 2.345-3.301 6.134-.361 6.3 2.567.146 3.393-1.002 1.545-2.144-.55-.34-1-1.293-1-2.118s.45-1.222 1-.882c.55.34 1-.084 1-.941 0-1.852-.028-1.854-2.184-.215M52 221c-1.293.835-1.266.971.191.985.93.008 1.969-.435 2.309-.985.782-1.266-.542-1.266-2.5 0m24.5 1c-.391.633 2.156 1 6.941 1 4.373 0 7.559-.422 7.559-1 0-.571-2.98-1-6.941-1-3.818 0-7.219.45-7.559 1m24 0c-1.178.506 10.43.888 28.25.93 19.547.045 30.25-.284 30.25-.93 0-1.247-55.598-1.247-58.5 0M17 228.5v4.5h5.5c3.025 0 5.5.45 5.5 1s-2.475 1-5.5 1-5.5.45-5.5 1c0 .993 10.957 1.573 20.25 1.072 4.888-.263 5.925.708 3.184 2.983-1.45 1.203-4.434 6.165-4.434 7.373 0 .29 1.89-1.523 4.2-4.029 2.31-2.506 5.797-5.401 7.75-6.433l3.55-1.878-7.25-.044c-4.225-.026-7.25-.469-7.25-1.062 0-.662 3.856-.835 11-.493 10.877.52 13.347-.163 9-2.489-1.1-.589-2.007-1.842-2.015-2.785-.031-3.491-1.551-4.632-3.941-2.958-1.195.837-3.157 1.308-4.359 1.046-1.767-.385-1.898-.271-.685.595 1.304.931 1.279 1.073-.191 1.087-.93.008-1.969-.435-2.309-.985-.34-.55-1.068-1-1.618-1s-.722.45-.382 1c1.081 1.75-2.134 1.076-4.773-1-2.094-1.648-4.057-2-11.135-2H17v4.5m55.834-.36c-2.016 2.211-3.591 4.209-3.5 4.44.091.231 20.416.487 45.166.569l45 .15V224.5l-41.5-.19-41.5-.19-3.666 4.02m132.863-3.503c-1.54 1.539-.73 8.219 1.053 8.689 3.226.85 20.734.724 22.069-.158.823-.544 1.199-2.338 1-4.77l-.319-3.898-11.553-.28c-6.355-.154-11.867.033-12.25.417M98.158 229c0 1.375.227 1.938.504 1.25.278-.687.278-1.812 0-2.5-.277-.687-.504-.125-.504 1.25m4.342-1c-.837 1.354.292 3 2.059 3 .793 0 1.441-.9 1.441-2 0-2.07-2.413-2.76-3.5-1m4.98.032c-.388.628-.235 1.613.34 2.188 1.344 1.344 4.477.172 3.93-1.471-.556-1.671-3.386-2.147-4.27-.717m5.52.801c0 2.36.841 3.165 2.598 2.491 2.212-.849 1.731-4.324-.598-4.324-1.273 0-2 .667-2 1.833m13 0c0 1.009.675 1.834 1.5 1.834s1.5-.825 1.5-1.834c0-1.008-.675-1.833-1.5-1.833s-1.5.825-1.5 1.833m5.116-.083c-.084 1.622.442 2.25 1.884 2.25s1.968-.628 1.884-2.25c-.087-1.693-.229-1.817-.573-.5-.252.963-.842 1.75-1.311 1.75s-1.059-.787-1.311-1.75c-.344-1.317-.486-1.193-.573.5M137 229c0 1.1.173 2 .383 2 .211 0 .619-.9.907-2 .287-1.1.115-2-.384-2-.498 0-.906.9-.906 2m5 0c0 .917.641 1.667 1.425 1.667s1.369-.75 1.3-1.667c-.069-.917-.71-1.667-1.425-1.667-.715 0-1.3.75-1.3 1.667m25.768-1.275c1.797.222 4.497.218 6-.01 1.503-.229.032-.411-3.268-.405-3.3.005-4.529.192-2.732.415M103.5 229c.34.55.816 1 1.059 1s.441-.45.441-1-.477-1-1.059-1-.781.45-.441 1m5.5.059c0 .582.45.781 1 .441s1-.816 1-1.059-.45-.441-1-.441-1 .477-1 1.059m5-.059c0 .55.45 1 1 1s1-.45 1-1-.45-1-1-1-1 .45-1 1m-83.091 5.077c-1.025.65-.66.897 1.341.908 2.986.016 3.524-.474 1.409-1.285-.737-.283-1.975-.113-2.75.377M203 236c0 .55.675 1 1.5 1 2.178 0 1.846 1.326-1 4-1.375 1.292-2.5 2.812-2.5 3.377 0 .566 1.688-.586 3.75-2.559 2.063-1.974 5.1-4.297 6.75-5.163l3-1.575-5.75-.04c-3.193-.022-5.75.405-5.75.96m-191 3.917c0 2.132.483 3.083 1.566 3.083 1.111 0 1.475-.779 1.25-2.673-.46-3.893-2.816-4.236-2.816-.41m64.27 3.349c1.836 2.406 3.917 5.917 4.625 7.804a466.002 466.002 0 0 0 2.175 5.68c.488 1.238 1.684 2.236 2.659 2.22 1.661-.029 1.664-.093.051-1.034-.947-.551-2.218-2.9-2.825-5.219-1.335-5.1-5.176-11.23-7.975-12.728-1.554-.831-1.243-.041 1.29 3.277m-23.77-.585c-10.868 3.003-15.688 20.191-7.969 28.415 12.28 13.085 32.723 4.649 31.599-13.039-.674-10.602-12.666-18.406-23.63-15.376m2.888 5.989c-5.161 1.059-11.02 12.585-7.502 14.759.613.379 1.114.212 1.114-.37S49.852 262 50.893 262c1.699 0 3.107-1.797 3.107-3.965 0-.441-.987-1.06-2.194-1.375-2.143-.561-2.151-.621-.345-2.617 2.187-2.416 3.539-2.624 3.539-.543 0 .999.999 1.5 2.988 1.5 2.503 0 2.95-.365 2.75-2.25-.185-1.752.205-2.176 1.762-1.916 1.343.224 1.672.001 1-.68-1.276-1.292-5.385-2.044-8.112-1.484m163.112.16c-6.494 2.175-11.59 12.142-7.5 14.67.55.34 1 .089 1-.558 0-.683.838-.956 2-.652 1.257.328 2 .03 2-.802 0-.728.273-2.036.607-2.906.435-1.134.01-1.582-1.5-1.582-2.395 0-2.52-.359-1.072-3.066 1.223-2.285 3.965-2.586 3.965-.434 0 .999.999 1.5 2.988 1.5 2.503 0 2.95-.365 2.75-2.25-.185-1.752.205-2.176 1.762-1.916 2.953.492.582-1.578-2.5-2.183-1.375-.27-3.4-.189-4.5.179m-200.894 2.754c-.373.973-.15 1.431.581 1.187 1.495-.498 2.318-2.771 1.003-2.771-.537 0-1.249.713-1.584 1.584M93.5 253c-.34.55-.141 1 .441 1S95 253.55 95 253s-.198-1-.441-1-.719.45-1.059 1m-28.012 1.224c-1.093.589-2.117 1.171-2.275 1.294-.159.123.237 1.375.878 2.781.994 2.184 1.439 2.387 3.037 1.389 3.416-2.133 1.852-7.344-1.64-5.464m162.213.252c-1.297.949-1.612 2.031-1.138 3.918.738 2.942 1.207 3.096 3.687 1.214 3.478-2.64.965-7.701-2.549-5.132M56.754 259.25c-.744 2.025.278 3.75 2.222 3.75 1.945 0 3-1.725 2.293-3.75-.239-.687-1.25-1.25-2.245-1.25-.996 0-2.017.563-2.27 1.25m162.913-.583c-1.18 1.179-.712 3.379.846 3.976 1.974.758 4.522-1.387 3.821-3.216-.564-1.469-3.484-1.944-4.667-.76m5.865 5.298c-2.482 2.743.129 6.391 2.918 4.077 1.883-1.563 1.919-2.155.265-4.417-1.213-1.659-1.392-1.64-3.183.34m-163.586.6c-1.181 1.423-1.105 1.846.551 3.057 2.551 1.864 4.003 1.251 4.003-1.692 0-2.904-2.624-3.69-4.554-1.365m-8.769 1.523c-1.558 2.495-1.52 2.658.905 3.956 1.94 1.038 4.759-.77 4.886-3.133.104-1.92-4.681-2.6-5.791-.823m162.142.473c-1.643 3.541 2.792 5.994 5.166 2.857 1.974-2.608 1.897-2.923-1.032-4.257-3.17-1.445-2.748-1.588-4.134 1.4" fill-rule="evenodd"/><path fill="#d06618" stroke="#d06618" d="M132.54 11.07c-5.173 4.768-8.572 5.917-13.957 4.717-7.321-1.63-13.364 1.492-17.651 9.12-2.476 4.405-5.858 6.647-11.432 7.577-10.129 1.69-14.814 5.348-17.153 13.394-1.7 5.85-5.145 9.836-9.269 10.727-8.397 1.815-10.824 4.521-12.091 13.484-1.008 7.132-3.376 10.669-9.984 14.909-5.881 3.774-6.439 5.308-5.762 15.825l.494 7.677-4.805 4.659C20.831 122.95 24.636 136 37.589 136c5.026 0 6.058-1.002 3.387-3.288-4.882-4.181-3.694-14.433 2.316-19.982l4.096-3.781-.24-7.541c-.297-9.297.224-11.032 3.882-12.923C57.412 85.184 61 79.552 61 72.833c0-3.86 4.416-8.599 9.218-9.892 5.008-1.348 7.72-4.272 9.825-10.592 1.988-5.968 5.852-8.834 14.098-10.457 4.691-.923 6.398-1.791 8.147-4.146 1.217-1.639 3.904-4.785 5.973-6.991l3.76-4.011 6.83.673 6.829.673 5.383-4.045c2.961-2.225 5.762-4.045 6.226-4.045 2.259 0 4.666 2.335 5.73 5.558 2.321 7.032 7.102-1.768 5.526-10.17-1.672-8.915-8.902-10.865-16.005-4.318m-7.141 20.906c-1.155.467-3.756 3.105-5.78 5.862-4.186 5.703-9.259 8.577-18.172 10.298-8.331 1.609-11.936 4.631-15.902 13.335-3.452 7.575-4.107 8.243-14.294 14.586C64.243 80.421 61.012 84.814 60.998 90c-.016 6.006-1.944 10.856-6.577 16.544-6.672 8.191-8.427 12.175-8.698 19.748-.252 7.03.225 7.665 5.777 7.689 1.816.008 2.001-.658 2.012-7.247.03-17.747 20.662-25.348 33.594-12.376 6.313 6.332 7.341 12.451 3.398 20.223-1.373 2.705-2.498 4.978-2.5 5.051-.007.225 17.476 3.178 40.996 6.925 12.375 1.972 27.225 4.414 33 5.426 5.775 1.012 10.656 1.686 10.848 1.498.376-.371-4.545-20.512-5.162-21.129-.206-.205-2.301.306-4.656 1.137-9.637 3.401-17.279 1.119-22.657-6.765C131.018 113.01 139.722 95 155.704 95c2.972 0 3.428 2.61-5.676-32.5-3.708-14.3-7.04-27.237-7.404-28.75-.648-2.693-.811-2.749-7.893-2.687-3.977.035-8.176.446-9.332.913m10.375 5.428c-.282 1.472.122 4.516.896 6.764s1.129 4.367.787 4.708c-1.131 1.131-3.457-3.205-3.457-6.445 0-3.338-2.172-6.061-3.956-4.958-.574.355-1.044.168-1.044-.414S128.111 36 127.025 36c-1.687 0-1.886.474-1.363 3.25.68 3.606 2.969 6.75 4.916 6.75.698 0 2.606 1.125 4.24 2.5 3.665 3.084 4.182 3.107 4.182.191 0-1.27.661-3.182 1.468-4.25 1.969-2.603 1.952-2.689-1.325-6.443l-2.857-3.272-.512 2.678M129 47.96c0 .652-1.087.846-2.75.491-2.645-.565-2.673-.529-.75.947 1.1.843 2.45 1.909 3 2.368 2.074 1.731 4.363 2.055 6.01.85 1.569-1.147 1.518-1.365-.653-2.753-4.366-2.792-4.857-2.985-4.857-1.903m-26 5.225c-8.895 4.576-12.248 15.878-7.113 23.975 9.925 15.651 33.492 8.983 31.86-9.014C126.45 53.841 115.082 46.968 103 53.185m8.39 1.241c-.91 2.371.377 4.765 2.357 4.384 1.107-.213 1.753-1.249 1.753-2.81 0-2.851-3.156-4.059-4.11-1.574m6.751 5.904c-1.699 2.048-.305 4.836 2.236 4.473 1.514-.216 2.123-1.017 2.123-2.789 0-2.853-2.566-3.844-4.359-1.684m16.448-.474c-.575.931-.961 4.617-2.01 19.227l-.473 6.584 4.361-.662c16.266-2.469 17.711-22.036 1.878-25.443-1.758-.378-3.421-.248-3.756.294m-37.238 1.671c-.733 1.91 1.272 3.555 3.357 2.755 1.888-.725 1.186-3.679-.973-4.094-.957-.185-2.03.418-2.384 1.339m7.643.98c-1.107 1.334-1.063 1.852.264 3.18 2.145 2.144 4.972.953 4.562-1.922-.391-2.739-3.027-3.426-4.826-1.258m31.673 1.16c-1.202 1.201-.7 2.333 1.033 2.333 1.28 0 1.416.284.551 1.149-.865.865-.784 1.853.326 4 1.31 2.533 1.304 2.851-.051 2.851-1.392 0-1.919 1.395-1.795 4.75.026.688-.578 1.25-1.342 1.25-.764 0-1.389.675-1.389 1.5 0 2 4.874 1.977 7.749-.037 2.538-1.777 4.661-8.549 3.688-11.762-1.409-4.651-6.59-8.215-8.77-6.034M98.362 70.5c-.885 2.305.358 4.5 2.548 4.5 2.475 0 3.403-1.438 2.587-4.009-.74-2.33-4.299-2.671-5.135-.491M111 71.531c0 3.036 2.583 4.314 4.614 2.283 1.999-1.999.7-4.814-2.221-4.814-1.894 0-2.393.528-2.393 2.531m10.25.131c-1.675.676-1.589 3.812.144 5.25 2.547 2.114 5.771-2.347 3.406-4.712-1.279-1.279-1.595-1.327-3.55-.538m-48.595 8.167c-2.154 2.38-2.351 7.994-.219 6.224 1.066-.885 1.968-.907 3.5-.087 3.146 1.683 2.549 3.299-.936 2.534-2.686-.59-3-.406-3 1.752 0 1.533-.89 2.886-2.447 3.72-3.28 1.755-3.917 3.824-2.053 6.669 1.976 3.015 3.57 2.978 6.509-.15 1.544-1.644 3.242-2.42 4.924-2.25 2.066.208 2.567-.176 2.567-1.972 0-1.226.45-2.126 1-2 .55.127.946 1.728.879 3.557-.112 3.099.059 3.284 2.5 2.707 5.828-1.375 7.381-6.162 4.241-13.074-3.754-8.265-13.169-12.378-17.465-7.63m32.337-.32c-.944 1.138-1.004 1.879-.217 2.666 1.517 1.517 4.442.188 4.049-1.839-.449-2.316-2.27-2.709-3.832-.827m9.118.858c-.864 1.042-.764 1.675.42 2.658 1.911 1.586 4.044-.086 3.134-2.458-.741-1.93-2.056-2.004-3.554-.2m42.969 2.216c.048 1.165.285 1.402.604.605.289-.722.253-1.585-.079-1.917-.332-.332-.568.258-.525 1.312m-8.505.667c-.316.963-.785 2.425-1.043 3.25-.259.829-1.632 1.5-3.069 1.5-4.474 0-2.981 4.415 1.624 4.801 5.559.466 8.457-4.687 5.011-8.912-1.739-2.132-2.01-2.201-2.523-.639m-48.186 8.73c-11.153 4.507-7.103 20.109 5.851 22.538 5.133.962 5.388-.27 2.68-12.962-2.412-11.304-2.9-11.851-8.531-9.576m29.808 1.684c-1.732 1.975-2.589 2.343-3.45 1.482-1.811-1.811-2.746-1.35-2.746 1.354 0 1.375-.464 2.5-1.031 2.5-1.62 0-2.312-2.882-1.055-4.396 1.49-1.795-.55-2.662-3.599-1.529-5.34 1.985-4.942 9.863.831 16.438 5.137 5.851 13.854 4.124 13.854-2.744 0-1.51-.296-1.601-1.919-.588-2.397 1.497-5.927-.735-4.082-2.58.779-.779 1.323-.698 1.931.285 1.068 1.729 3.07.571 3.07-1.776 0-.975 1.125-2.374 2.5-3.11 3.026-1.62 3.34-5.48.566-6.965-2.482-1.328-2.192-1.425-4.87 1.629m-31.209 3.52c-3.76 6.039-.27 14.063 6.362 14.626 2.774.236 3.651-.064 3.651-1.25 0-.858-.45-1.56-1-1.56s-1-.62-1-1.378c0-.757-.711-1.967-1.58-2.689-.93-.771-1.397-2.273-1.134-3.647.28-1.464-.157-2.689-1.17-3.281-1.345-.786-1.225-.949.717-.975 2.909-.037 2.38-2.402-.636-2.846-1.533-.226-2.735.63-4.21 3m62.092.399c.048 1.165.285 1.402.604.605.289-.722.253-1.585-.079-1.917-.332-.332-.568.258-.525 1.312m-7.412 2.084c-1.243 1.242-.676 5.116.833 5.695 2.193.841 4.5-.322 4.5-2.269 0-2.969-3.525-5.234-5.333-3.426m8.333.558c0 .793 10.851 43.318 12.504 49.003.757 2.601 1.002 4.959.545 5.241-.687.425-29.461-2.975-42.049-4.968-2.586-.41-2.973-.317-1.484.354 1.109.499 8.759 1.885 17 3.079 15.984 2.316 22.281 3.529 23.229 4.477.323.324-23.112.589-52.078.589H67v-2.156c0-1.185-1.058-3.548-2.351-5.25s-2.195-3.994-2.004-5.094c.191-1.1.085-3.125-.235-4.5l-.582-2.5-1.492 2.838c-1.587 3.018-.94 5.112.813 2.633.844-1.194.928-1.126.445.361-.327 1.007-.594 2.245-.594 2.75 0 .505-.911.918-2.025.918-1.208 0-2.387.953-2.923 2.364-1.228 3.23-6.052 4.493-6.052 1.584 0-.487.617-.648 1.371-.359 1.11.426 2.955-1.94 2.695-3.455-.034-.202-3.586-.427-7.894-.5l-7.831-.134.457 4.75c.289 3.004.061 4.75-.619 4.75-.591 0-1.24-2.363-1.442-5.25l-.367-5.25-.185 5.25c-.236 6.694-2.185 6.917-2.185.25 0-2.75-.433-5-.963-5-.554 0-.755 2.123-.473 5 .302 3.073.095 5-.537 5-.566 0-1.027-2.245-1.027-5 0-3.074-.439-5-1.139-5-.776 0-.955 1.559-.561 4.887l.579 4.887-4.19-.137c-4.189-.137-4.189-.137-4.496-4.387-.291-4.014-.479-4.25-3.39-4.25h-3.082l.593 5 .592 5h-2.953c-1.823 0-2.953.52-2.953 1.36 0 2.432 27.765 3.009 31.098.646 2.531-1.793 2.641-1.791 4.24.076 1.591 1.858 3.903 1.918 73.402 1.913 77.832-.004 94.26-.466 94.26-2.648 0-1.076-3.403-1.347-16.941-1.347-9.318 0-17.149-.338-17.404-.75-.255-.412-3.925-13.35-8.157-28.75-6.786-24.699-8.498-30.394-8.498-28.275m-18.638 3.275c-.878 2.287.351 4.5 2.5 4.5 2.365 0 3.579-2.763 2.033-4.627-1.505-1.813-3.814-1.748-4.533.127m-76.998 8.993c-.346.903-.15 2.121.436 2.707 1.524 1.524 4.41.131 4.012-1.935-.443-2.302-3.647-2.858-4.448-.772m91.676-.041c-1.844 2.222-.328 5.548 2.527 5.548 2.706 0 3.464-3.569 1.233-5.8-1.562-1.562-2.295-1.513-3.76.252m-10.564.942c-2.009 1.469-1.462 4.29 1.014 5.241 1.782.683 4.51-1.266 4.51-3.222 0-2.254-3.469-3.522-5.524-2.019m-65.906 5.284c-.815 2.124 1.761 4.793 3.852 3.99.868-.333 1.578-1.744 1.578-3.137 0-3.005-4.342-3.688-5.43-.853m-10.903-.011c-2.187 2.187.759 6.874 3.629 5.773 2.146-.824 2.965-3.42 1.599-5.067-1.199-1.445-4.098-1.836-5.228-.706m-11.504 1.211c-2.296 1.455-1.015 5.622 1.728 5.622 3.166 0 4.958-2.772 3.179-4.916-1.464-1.764-2.91-1.972-4.907-.706m44.837.606-3.5 1.284 3 1.257c1.65.691 4.403 1.164 6.118 1.051 4.141-.274 5.022 2.139 2.184 5.979-1.198 1.62-2.592 2.945-3.097 2.945-.505 0-.681.62-.39 1.378.291.758.031 1.876-.576 2.483-1.53 1.53-.313 2.456 2.186 1.663 1.203-.382 2.124-1.576 2.191-2.841.09-1.692.219-1.789.573-.433.526 2.01 2.246 2.362 2.444.5 1.412-13.219-2.413-18.464-11.133-15.266m37.25-.753c-1.788.623-1.546 3.942.34 4.665 2.105.808 3.41-.091 3.41-2.348 0-1.966-1.717-3.027-3.75-2.317m-15.22 2.99c-10.297 9.329.133 24.35 13.405 19.304 3.525-1.34 3.342-2.077-3.021-12.161-6.763-10.719-6.578-10.592-10.384-7.143m.563 3.449c-4.988 7.122 4.071 18.901 11.03 14.341l2.635-1.726-2.852-2.451c-1.569-1.348-3.584-2.259-4.477-2.026-1.185.31-1.559-.177-1.38-1.8.284-2.594-.456-3.982-2.549-4.779-1.156-.44-1.08-.589.333-.65 1.009-.043 1.656-.613 1.438-1.266-.708-2.125-2.549-1.967-4.178.357m24.074-1.503c-.367.366-.667 1.716-.667 3 0 2.857 5.358 3.448 6.41.706 1.126-2.933-3.519-5.93-5.743-3.706m12 0c-1.184 1.183-.709 4.103.76 4.667 2.219.851 4.116-1.975 2.573-3.834-1.355-1.632-2.298-1.868-3.333-.833m-61.323 3.083c-.949.688-1.398 1.25-.996 1.25.401 0-.188.985-1.309 2.189-2.834 3.042-2.548 4.113.961 3.598 1.65-.242 3-.111 3 .293 0 .403.9.497 2 .21 1.1-.288 2-1.111 2-1.83 0-.719 1.117-2.634 2.482-4.257l2.482-2.95-4.446.124c-2.446.068-5.224.686-6.174 1.373m-18.635-.126c-1.325 1.325-.716 5.159.918 5.786 2.216.851 4.535-1.275 4.171-3.822-.295-2.07-3.678-3.375-5.089-1.964m-13.635 3.238c-.712 1.33-.602 2.401.384 3.75 1.338 1.829 1.461 1.813 3.949-.525 1.965-1.846 2.308-2.726 1.458-3.75-1.595-1.921-4.629-1.646-5.791.525m-11.694 1.59c-.704 1.834.32 3.548 2.12 3.548 2.058 0 2.838-1.888 1.464-3.544-1.539-1.853-2.874-1.855-3.584-.004m97.857 7.711c-1.72 1.72-1.546 3.247.592 5.182 2.61 2.362 6.753 2.089 8.614-.568 3-4.282.783-8.163-2.443-4.277-1.589 1.914-2.985 1.903-4.403-.037-.893-1.22-1.378-1.282-2.36-.3m-45.487 6.499c.688.278 1.813.278 2.5 0 .688-.277.125-.504-1.25-.504s-1.937.227-1.25.504M23.272 151c0 2.475.195 3.488.434 2.25.238-1.238.238-3.262 0-4.5-.239-1.238-.434-.225-.434 2.25m3 0c0 2.475.195 3.488.434 2.25.238-1.238.238-3.262 0-4.5-.239-1.238-.434-.225-.434 2.25m89.997-3.307c.973.254 2.323.237 3-.037.677-.274-.119-.481-1.769-.461-1.65.02-2.204.244-1.231.498m4.731.698c0 .214 1.575.574 3.5.799 1.925.225 3.5.049 3.5-.391 0-.439-1.575-.799-3.5-.799s-3.5.176-3.5.391m-75.349 8.077c-.31.807-.064 1.777.547 2.154.673.416.83.232.397-.467-.451-.73.044-1.155 1.346-1.155 1.132 0 2.059-.45 2.059-1 0-1.569-3.721-1.169-4.349.468M13 192c0 18.862.353 29 1.01 29 .655 0 .99-8.833.953-25.12-.031-13.815.159-25.335.423-25.6 1.638-1.638 2.659 1.444 2.123 6.407-.383 3.553-.181 6.003.571 6.909.7.843.817 1.903.292 2.654-.479.688-.739 8.787-.575 18l.296 16.75h7.832c7.807 0 7.836-.01 9.11-3.084.702-1.696 2.288-3.468 3.523-3.938 2.619-.996 3.05-3.114 4.01-19.728.636-10.994.602-11.25-1.465-11.25-1.164 0-3.094-1.125-4.29-2.5-3.691-4.245-4.804-3.277-4.887 4.25-.148 13.436-1.664 16.805-1.801 4-.118-11.11-.016-11.75 1.867-11.75 1.317 0 2.588-1.26 3.75-3.715 3.583-7.572 10.887-10.151 16.167-5.708 1.899 1.598 4.113 2.507 5.827 2.394 7.314-.484 9.45.061 12.591 3.215l3.173 3.186 11.5.109c6.325.06 24.728.202 40.895.314l29.394.205-.587 6.284c-.322 3.457-.208 6.897.254 7.644.881 1.426-.762 7.6-1.757 6.604-.313-.313-.456-4.836-.317-10.051l.253-9.481h-7.067c-7.833 0-7.691-.106-5.505 4.123.968 1.871 1.325 4.111.937 5.877-.559 2.546-.334 2.89 2.088 3.177 4.724.562 7.071 4.89 4.78 8.814-2.519 4.314-8.596 7.376-12.998 6.551-3.218-.604-3.37-.497-3.37 2.366 0 7.311-3.559 9.971-14.896 11.132-4.083.418 2.838.73 18.129.818l24.733.142-.233-28.75-.233-28.75-59.5.134c-32.725.074-60.513.234-61.75.356-2.446.241-3 1.541-1 2.348.94.379.917.524-.094.583-.739.043-1.579-.821-1.866-1.921-.471-1.799-1.364-2-8.907-2-4.922 0-8.383.413-8.383 1 0 .55 1.364 1 3.031 1 3.289 0 5.006 2.363 3.102 4.267-.844.844-1.133.714-1.133-.51 0-1.217-1.1-1.722-4.25-1.95-3.403-.246-4.191-.656-3.956-2.057.161-.963-.176-1.75-.75-1.75-.701 0-1.044 9.521-1.044 29m149-22v7h41v-3.5c0-1.925.45-3.5 1-3.5s1 1.575 1 3.5v3.5l8.25-.1c4.96-.06 7.253-.375 5.75-.791-1.935-.536-2.978-2.038-4.617-6.651-2.181-6.137-5.801-8.44-8.705-5.536-.771.771-.166 1.078 2.122 1.078 2.747 0 3.2.354 3.2 2.5 0 1.375-.45 2.5-1 2.5s-1-.675-1-1.5c0-1.083-1.111-1.5-4-1.5-2.2 0-4-.45-4-1s.45-1 1-1 1-.45 1-1c0-.634-7.5-1-20.5-1H162v7m-120.027-.308c-6.606 4.52-4.058 13.215 2.594 8.856 2.262-1.482 2.432-1.47 2.42.179-.022 3.122-2.968 36.593-3.233 36.725-.14.071-1.604.569-3.254 1.108-4.881 1.595-4.348 8.44.658 8.44 1.581 0 1.733-.335.877-1.934-2.302-4.302 1.392-5.926 4.697-2.066 2.161 2.524 3.268 2.544 3.268.059 0-1.068.498-2.249 1.107-2.625.771-.477.696-.944-.25-1.544-.999-.632-1.027-.863-.107-.875.719-.008 1.25-1.29 1.25-3.015 0-2.494.402-3 2.383-3 1.603 0 2.569-.709 2.95-2.164.478-1.829.807-1.965 2.116-.878 1.847 1.533 2.043 3.143.339 2.792-1.387-.286-1.832 2.09-2.099 11.205-.226 7.705 1.961 9.896 8.626 8.646 6.587-1.236 8.851-8.768 3.072-10.219-2.78-.697-4.505.309-2.574 1.502 1.531.947.488 4.116-1.354 4.116-1.033 0-1.27-2.27-1.069-10.25.142-5.637-.168-10.812-.689-11.5-1.451-1.917-6.466-1.485-8.701.75-2 2-2 2-2-4.025 0-5.547.203-6.102 2.565-7 3.907-1.485 4.925-1.174 3.025.926-1.126 1.244-1.352 2.128-.655 2.559.586.362 1.065 1.531 1.065 2.599 0 2.375 2.681 2.553 5.777.384 2.016-1.411 2.223-1.409 2.223.022 0 1.805 4.629 4.267 5.754 3.061.41-.44.184-1.001-.504-1.246-2.922-1.044.512-5.28 4.28-5.28 1.049 0 2.586 4.314 1.737 4.877-1.382.917-8.267 11.975-8.267 13.278 0 .762 1.512.899 4.75.434 2.612-.376 7.9-.948 11.75-1.272 8.085-.68 9.5-1.487 9.5-5.42 0-2.26-.556-2.999-2.655-3.525-3.345-.84-5.917.775-5.607 3.519.201 1.782-.294 2.109-3.191 2.109-5.801 0-5.594-1.716 1.326-10.999l2.608-3.498.515 2.977c1.046 6.035 9.47 5.952 9.535-.095.025-2.35.512-2.941 2.622-3.189 4.707-.552 4.315 2.433-1.624 12.385-6.245 10.465-6.819 12.725-3.029 11.938 1.375-.285 3.726-.778 5.224-1.094 1.498-.317 7.36-.946 13.027-1.4 5.666-.454 10.966-1.375 11.776-2.047 1.722-1.43 1.966-7.085.374-8.677-.798-.798-.255-1.284 1.989-1.777 1.698-.373 3.333-1.076 3.634-1.563.305-.494 1.649-.384 3.038.249 5.022 2.289 12.567-3.94 9.398-7.758-1.718-2.07-3.591-1.798-5.505.798-1.59 2.158-1.638 1.977-1.176-4.448.605-8.403-.747-10.803-6.086-10.8-4.581.001-10.388 2.803-11.619 5.605-.812 1.85-2.341 2.262-12.5 3.372-6.366.695-13.116 1.894-15.001 2.665-2.468 1.01-3.619 1.09-4.116.287-.816-1.321-16.698.325-19.954 2.068-1.704.911-2.003.762-2.003-.996 0-1.159-.885-2.395-2.013-2.812-1.885-.697-1.83-.853.871-2.448 10.092-5.962 3.415-18.09-8.878-16.124-2.917.467-4.179.085-6.682-2.022-3.619-3.045-4.982-3.193-8.325-.905m.027 5.867c0 .857.45 1.281 1 .941.55-.34 1-1.041 1-1.559s-.45-.941-1-.941-1 .702-1 1.559m14.261 2.691c-1.423 1.808-2.334 8.75-1.148 8.75 2.739 0 6.887-3.207 6.887-5.326 0-3.931-3.634-6.099-5.739-3.424m166.552-.567c.721.289 1.584.253 1.916-.079.332-.332-.258-.568-1.312-.525-1.165.048-1.402.285-.604.604M74 180.114c0 1.162-.98 3.857-2.178 5.989-2.884 5.131-2.451 5.34 8.39 4.039 5.108-.613 9.963-1.026 10.788-.919.825.107 3.75-.148 6.5-.566 2.75-.418 8.15-1.244 12-1.835 5.328-.818 7.784-1.761 10.285-3.948 1.806-1.581 3.719-2.874 4.25-2.874.531 0 .965-.45.965-1 0-.641-9.167-1-25.5-1-25.291 0-25.5.017-25.5 2.114m152.731-.034c.354 1.352.807 1.806 1.057 1.057.24-.722-.038-1.787-.62-2.369-.742-.742-.872-.351-.437 1.312m-64.69 20.041-.082 21.01 19.27-.208c10.599-.115 19.801-.405 20.449-.645.846-.314 1.207-6.186 1.281-20.869l.104-20.433-20.47.068-20.469.067-.083 21.01m43.356-19.712c-.319.83-.426 10.19-.238 20.8l.341 19.291 11.485.285c17.448.433 16.28 2.215-1.452 2.215-8.176 0-14.592.275-14.256.611.721.72 50.838.608 51.562-.116.272-.272-4.531-.495-10.672-.495-6.778 0-11.167-.393-11.167-1 0-.604 4.207-1 10.622-1 13.045 0 12.892-1.368-.556-4.982L232 213.581v-14.723c0-13.845-.119-14.761-2-15.358-3.949-1.253-6 .308-6 4.567 0 5.606-1.282 4.876-4.074-2.317l-2.426-6.25-5.762-.3c-4.413-.23-5.898.053-6.341 1.209m-39.147 1.276c-1.808.365-2.25 1.128-2.25 3.885V189l14.25.015c7.838.009 14.797.363 15.466.789.817.518 1.31 4.706 1.5 12.734l.284 11.962 2.75.316 2.75.317V182l-14.25-.014c-7.838-.007-15.15-.18-16.25-.384-1.1-.204-3.012-.166-4.25.083M207 185.47c0 2.898.476 3.76 2.5 4.53 1.375.523 2.504 1.524 2.51 2.225.005.701 1.104 3.627 2.443 6.501 1.378 2.961 2.024 5.479 1.49 5.809-.519.321-.936 1.119-.928 1.774.01.766.333.689.906-.215.658-1.04 1.466-.065 3.107 3.75 2.869 6.668 4.674 6.694 5.125.072.191-2.796.172-5.258-.042-5.472-.213-.213-2.035-5.238-4.047-11.166l-3.659-10.778-4.703-.305-4.702-.305v3.58m-79.272 2.889c.566 2.96-2.44 5.002-6.034 4.1-2.626-.659-6.972 3.929-12.134 12.81-3.468 5.966-2.432 7.991 3.854 7.531 3.771-.277 4.062-.504 3.777-2.952-.211-1.811.368-3.126 1.824-4.146 1.328-.93 1.727-1.743 1.058-2.157-3.146-1.944-.59-5.456 7.927-10.891 3.991-2.547 4.724-5.979 1.379-6.457-1.769-.252-2.043.108-1.651 2.162M130 195.78c-1.95.625-5 3.293-5 4.375 0 1.784 4.96.789 6.03-1.21 1.359-2.54.949-3.799-1.03-3.165m-36 2.72c0 .825.45 1.5 1 1.5s1-.675 1-1.5-.45-1.5-1-1.5-1 .675-1 1.5m132 2.559c0 .582.45.781 1 .441s1-.816 1-1.059-.45-.441-1-.441-1 .477-1 1.059M211 208c0 .55.477 1 1.059 1s.781-.45.441-1-.816-1-1.059-1-.441.45-.441 1m-90 2c0 .55.477 1 1.059 1s.781-.45.441-1-.816-1-1.059-1-.441.45-.441 1m-41.989 6.859c-2.198.404-3.612 1.288-3.823 2.391-.297 1.551.592 1.75 7.808 1.75 7.873 0 8.132-.075 7.824-2.25-.352-2.473-4.78-3.182-11.809-1.891m-36.284 3.747c-.993.994 3.021 4.668 4.262 3.901.806-.498.635-1.265-.579-2.606-1.805-1.995-2.677-2.301-3.683-1.295m-28.535 2.574c-1.515.608-1.499.687.15.75 1.576.06 1.811.83 1.626 5.32-.276 6.689-.13 8.245.696 7.419.365-.365.568-3.346.449-6.624l-.215-5.959 7.801-.3 7.801-.299-8.308-.494c-4.57-.271-9.07-.187-10 .187M118 223l-42.5.511 42.5.495c23.375.272 49.925.247 59-.055l16.5-.548-15.168-.202c-8.343-.11-15.768-.316-16.5-.456-.733-.141-20.457-.026-43.832.255m-19.921 5.583c.048 1.165.285 1.402.604.605.289-.722.253-1.585-.079-1.917-.332-.332-.568.258-.525 1.312m28-.25c-.09 2.098 2.098 1.775 2.685-.395.321-1.189.223-1.202-.567-.075-.806 1.151-1.039 1.151-1.497 0-.365-.917-.568-.763-.621.47m5 .25c.048 1.165.285 1.402.604.605.289-.722.253-1.585-.079-1.917-.332-.332-.568.258-.525 1.312m36.689-.858c1.797.222 4.497.218 6-.01 1.503-.229.032-.411-3.268-.405-3.3.005-4.529.192-2.732.415M142 229c0 .55.45 1 1 1s1-.45 1-1-.45-1-1-1-1 .45-1 1m111 5.965c0 3.319.36 6.035.8 6.035 3.537 0 4.542-9.211 1.2-11-1.897-1.015-2-.76-2 4.965M56 234c-3.025.371-5.05.752-4.5.846.55.095-1.381 1.538-4.29 3.207-2.91 1.668-6.51 4.797-8 6.952-1.491 2.156-3.054 3.936-3.473 3.957-1.313.065 2.201-7.375 4.321-9.153 1.916-1.606 1.386-1.693-10.52-1.738-12.412-.047-12.538-.024-12.538 2.241 0 1.258.427 2.715.949 3.238.522.522 1.254 2.862 1.628 5.2.635 3.977.529 4.25-1.649 4.25-1.811 0-2.061-.267-1.128-1.2 1.677-1.677 1.498-3.128-.3-2.438-.825.316-1.5.177-1.5-.31s.53-1.062 1.177-1.278c2.488-.829-.482-2.774-4.236-2.774H8v13h4.5c3.833 0 4.5.296 4.5 2 0 1.733-.667 2-5 2-3.778 0-5 .367-5 1.5 0 1.124 1.197 1.5 4.777 1.5 5.416 0 8.936-1.964 9.405-5.249.175-1.227 1.123-2.384 2.107-2.572 1.469-.28 1.674.122 1.142 2.24-.643 2.56-.6 2.581 5.367 2.581h6.014l.683-4.962c1.609-11.701 9.73-18.538 22.017-18.538 12.444 0 20.476 6.838 22.12 18.831l.64 4.669h72.778l.95-2.5c.523-1.375 1.597-2.5 2.387-2.5 1.936 0 3-6.747 2.145-13.593l-.676-5.407H73.343l4.152 4.333c2.61 2.725 4.635 6.059 5.453 8.981 1.543 5.511 2.433 6.387 7.056 6.944 2.681.324 2.265.459-1.785.582-3.486.106-5.402-.265-5.636-1.09-.195-.687-.855-3.098-1.466-5.356-1.442-5.327-8.319-13.091-13.396-15.122-3.682-1.473-3.851-1.703-2.167-2.935 2.098-1.534.636-1.586-9.554-.337m104 0c0 .55.45 1 1 1s1-.45 1-1-.45-1-1-1-1 .45-1 1m42.345.543c-.9 2.346.072 2.621 1.451.412.773-1.238.839-1.955.181-1.955-.572 0-1.306.694-1.632 1.543M229 234.5c0 .825-.477 1.5-1.059 1.5s-.781-.45-.441-1c.39-.631-2.009-1-6.5-1-3.915 0-6.889.371-6.608.825.28.453-1.451 1.777-3.847 2.941s-5.824 3.943-7.618 6.175c-1.793 2.232-3.462 3.857-3.708 3.611-.695-.695 3.737-7.423 5.609-8.515 1.486-.867 1.449-.978-.328-.99-1.461-.009-3.055 1.937-5.911 7.22-4.64 8.58-6.059 7.589-1.647-1.151l3.053-6.049-19.034-.018-19.033-.019.286 9.727.286 9.728 3 .639 3 .639-2.833.119c-1.787.074-2.68.58-2.418 1.368.308.927 5.208 1.32 18.941 1.522l18.526.271.581-5.63c2.005-19.428 26.437-24.861 37.387-8.315 2.013 3.043 2.701 5.331 2.701 8.992 0 4.393.232 4.91 2.2 4.91 2.914 0 3.666-2.291 1.878-5.719-1.655-3.172-1.879-5.281-.561-5.281.496 0 1.383 1.378 1.97 3.062.969 2.781 1.415 3.034 4.848 2.75l3.78-.312V250c0-5.979-.18-6.526-2.25-6.82-1.629-.231-2.25-.99-2.25-2.75 0-2.401-.113-2.43-9.378-2.43-7.115 0-9.677-.362-10.622-1.5-.928-1.118-.944-1.5-.063-1.5.649 0 .903-.45.563-1-.934-1.511-2.5-1.198-2.5.5m-217 6.083c0 3.133 2.348 2.79 2.82-.411.212-1.443-.208-2.172-1.25-2.172-1.021 0-1.57.903-1.57 2.583m40.484 2.419c-12.822 3.969-15.52 22.889-4.411 30.936 4.745 3.437 14.549 4.721 11.927 1.562-.897-1.081-.922-1.5-.091-1.5.635 0 1.418.688 1.741 1.53 1.45 3.78 10.633-2.979 12.838-9.449 4.94-14.499-7.514-27.563-22.004-23.079m163.386-.035c-13.014 3.936-16.404 21.516-5.86 30.388 13.047 10.979 32.515-1.551 28.068-18.065-2.643-9.815-12.47-15.268-22.208-12.323m-163.107 6.598c-5.191 2.817-7.763 12.53-4.119 15.555 1.468 1.218 1.564 1.11.89-1.014-.692-2.178-.535-2.323 1.855-1.723 2.383.598 2.611.391 2.611-2.364 0-2.017-.498-3.019-1.5-3.019-1.8 0-1.969-2.131-.3-3.8 1.757-1.757 2.8-1.469 2.8.775 0 1.645.484 1.878 2.893 1.396 2.395-.479 3.272-.067 5.088 2.39 1.941 2.625 2.473 2.839 4.599 1.853 3.348-1.551 3.029-3.241-1.462-7.732-4.316-4.315-8.374-5.019-13.355-2.317m38.237.057c0 1.329.271 1.398 1.5.378.825-.685 1.5-1.415 1.5-1.622 0-.208-.675-.378-1.5-.378s-1.5.73-1.5 1.622m124 .578c-6.865 4.654-7.094 13.434-.486 18.632 3.49 2.745 4.862 2.729 6.769-.082 1.323-1.951 1.802-2.084 3.608-1 3.883 2.332 7.32-.754 4.415-3.964-1.726-1.907-1.71-2.041.453-3.792 7.56-6.121-6.456-15.422-14.759-9.794m-154 2.331c0 2.024 2.823 3.046 4.309 1.56.899-.899.825-1.395-.317-2.117-2.233-1.412-3.992-1.166-3.992.557m32.459-.464c-.363.586-.419 1.306-.126 1.6.717.716 2.667-.546 2.667-1.726 0-1.278-1.726-1.193-2.541.126M223.5 253c.44 1.387.18 2-.851 2-.817 0-2.197.273-3.067.607-1.134.435-1.582.01-1.582-1.5 0-2.657-1.173-2.679-3.539-.064-1.806 1.996-1.798 2.056.345 2.617 1.686.44 2.194 1.319 2.194 3.796 0 4.32 3.984 6.44 7.623 4.055 2.431-1.593 3.266-5.843 1.377-7.011-1.641-1.014-1.141-2.23 1.164-2.833 1.829-.478 1.965-.807.878-2.116-1.972-2.376-5.333-2.044-4.542.449m-26.421.583c.048 1.165.285 1.402.604.605.289-.722.253-1.585-.079-1.917-.332-.332-.568.258-.525 1.312m-140.716 5.914c-.346.901-.167 2.099.398 2.664 1.63 1.63 4.739.531 4.739-1.675 0-2.543-4.228-3.358-5.137-.989m163 0c-.346.901-.167 2.099.398 2.664 1.63 1.63 4.739.531 4.739-1.675 0-2.543-4.228-3.358-5.137-.989M62.265 264.18c-1.886 1.886-2.529 2.021-4.77 1-3.431-1.564-4.495-1.488-4.495.32 0 .825-.45 1.5-1 1.5-1.929 0-.975 2.054 1.471 3.169 2.136.973 2.73.805 4.392-1.248 1.774-2.191 2.125-2.265 4.559-.963 3.978 2.129 7.065-.915 4.018-3.962-1.994-1.995-1.997-1.995-4.175.184M212 263.227c0 1.537 1.937 3.773 3.27 3.773.478 0 .725-1.008.55-2.24-.345-2.418-3.82-3.813-3.82-1.533" fill-rule="evenodd"/><path fill="#7f0e0a" stroke="#7f0e0a" d="M135.143 9.054c-1.846 1.126-3.563 2.834-3.814 3.797-.695 2.658-7.969 4.465-13.221 3.285-7.202-1.618-13.48 1.631-16.843 8.717-1.848 3.896-6.228 6.892-11.265 7.708-10.728 1.738-14.986 5.143-17.578 14.058-1.822 6.27-5.589 9.895-11.278 10.857C55.018 58.511 51 64.3 51 72.093c0 3.591-5.127 10.347-9.951 13.112-5.414 3.103-6.479 6.087-5.664 15.86l.665 7.975-4.951 4.561C20.93 122.968 24.829 136 37.801 136c4.079 0 4.529-.965 1.683-3.603-4.703-4.358-3.149-14.03 3.326-20.697 3.669-3.778 3.69-3.849 3.69-12.337 0-7.933.177-8.673 2.5-10.441 7.491-5.704 10.025-8.556 10.584-11.913 1.58-9.485 4.283-13.252 10.416-14.512 4.712-.969 6.627-2.861 8.462-8.365 2.598-7.787 5.064-9.987 13.972-12.461 7.279-2.023 8.172-2.562 11.068-6.686 5.181-7.377 8.752-9.224 16.27-8.419l6.312.676 4.888-4.121C133.66 20.854 136.76 19 137.861 19c2.16 0 6.139 4.8 6.139 7.404 0 2.556 1.819 1.846 3.474-1.354 3.817-7.381-.796-18.068-7.789-18.046-.652.002-2.696.924-4.542 2.05m-3.476 7.613c-.367.366-.667 1.131-.667 1.7 0 .626.466.567 1.183-.15.651-.651.951-1.416.667-1.7-.284-.284-.817-.217-1.183.15m-6.285 16.315c-1.166.471-3.119 2.474-4.341 4.451-3.332 5.392-9.572 9.18-17.991 10.923C93.56 50.32 89.332 53.614 86.821 61c-2.249 6.617-5.163 9.767-13.598 14.699C64.58 80.752 62.329 83.868 61.444 92c-.84 7.726-1.259 8.637-7.73 16.82-5.834 7.377-7.61 11.734-7.67 18.817-.042 4.954.062 5.152 2.956 5.576l3 .441.022-5.577c.069-17.522 19.91-27.495 32.978-16.577 2.88 2.406 4.596 3.159 6.237 2.736 1.95-.502 2.087-.368.992.969-.935 1.141-1.001 2.264-.25 4.238 1.628 4.284 1.203 11.777-.902 15.906-1.348 2.645-1.573 3.89-.75 4.167 3.879 1.302 80.921 13.569 81.512 12.978.749-.748-3.947-19.494-4.883-19.494-.392 0-2.441.722-4.554 1.606-11.695 4.886-24.907-3.631-26.992-17.398-1.614-10.658 8.499-23.103 18.84-23.186 3.403-.027 3.415-.535.291-12.279-1.352-5.084-4.795-18.355-7.65-29.493L141.699 32l-7.099.063c-3.905.035-8.053.449-9.218.919m9.327 2.738c-1.124 1.124-2 1.308-2.909.61-.715-.549-2.642-.96-4.282-.914-3.63.102-4.205 2.004-2.116 7.004 2.188 5.235 2.242 5.056-1.652 5.46-1.474.153 3.92 5.414 6.59 6.428 1.084.411 3.004.011 4.669-.973 2.647-1.563 2.996-1.562 5.41.02 2.749 1.801 3.6.735 1.081-1.355-1.902-1.578-1.915-4.437-.034-7.308 2.849-4.347-3.264-12.465-6.757-8.972m-31.735 16.53c-9.802 4.955-13.365 17.554-7.326 25.897 11.126 15.368 34.654 8.562 33.148-9.589-1.253-15.118-13.224-22.678-25.822-16.308m8.559 2.697c-.88 1.423.242 3.053 2.099 3.053.876 0 1.378-.703 1.191-1.667-.389-2.009-2.386-2.849-3.29-1.386m22.733 3.863c-.8.511-1.464 4.991-1.886 12.739-.359 6.573-1.105 12.524-1.659 13.225-1.551 1.964-.547 2.236 5.014 1.357 13.351-2.11 18.96-14.671 10.383-23.249-2.136-2.135-4.799-3.882-5.919-3.882-1.119 0-2.635-.22-3.367-.489-.733-.27-1.887-.135-2.566.299M118.5 61c-.837 1.354.292 3 2.059 3 .793 0 1.441-.9 1.441-2 0-2.07-2.413-2.76-3.5-1M98 62.5c0 .825.675 1.5 1.5 1.5s1.5-.675 1.5-1.5-.675-1.5-1.5-1.5-1.5.675-1.5 1.5m7.5.5c-.837 1.354.292 3 2.059 3 .793 0 1.441-.9 1.441-2 0-2.07-2.413-2.76-3.5-1m32 1c-.34.55.273 1 1.362 1 1.378 0 2.123.836 2.452 2.75.77 4.472.626 7.25-.376 7.25-.516 0-.825.563-.688 1.25.137.688-.537 1.188-1.5 1.111-2.008-.159-2.368 1.24-.5 1.942.738.277.227.899-1.25 1.52-2.469 1.037-2.46 1.051.727 1.114 6.381.125 9.348-11.033 4.349-16.356-2.623-2.792-3.616-3.135-4.576-1.581m-25.422 6.406c-1.41 1.699-.66 3.594 1.422 3.594 2.165 0 2.884-2.044 1.282-3.646-1.272-1.272-1.61-1.266-2.704.052M99 71.927c0 1.431.642 2.073 2.073 2.073s1.97-.539 1.739-1.739C102.31 69.655 99 69.364 99 71.927m22.374 1.542c-.874 2.276.542 3.846 2.215 2.457 1.828-1.517 1.787-2.568-.127-3.302-.863-.331-1.78.04-2.088.845m-48.857 5.697c-2.567 2.019-2.711 2.524-2.13 7.473.576 4.895.429 5.435-1.881 6.949-3.024 1.981-3.36 6.329-.677 8.757 2.648 2.396 4.504 2.048 6.986-1.309l2.192-2.964 3.462 2.042c9.27 5.47 15.503-5.587 8.895-15.778-4.714-7.271-11.521-9.36-16.847-5.17m33.15.501c-1.151 1.15-.729 2.333.833 2.333.825 0 1.5-.675 1.5-1.5 0-1.562-1.183-1.984-2.333-.833M52 81.5c0 .825.395 1.5.878 1.5.482 0 1.437-.675 2.122-1.5 1.04-1.253.896-1.5-.878-1.5-1.22 0-2.122.638-2.122 1.5m62 0c0 .825.675 1.5 1.5 1.5s1.5-.675 1.5-1.5-.675-1.5-1.5-1.5-1.5.675-1.5 1.5m14.667-.833c-1.498 1.497-.735 3.634.833 2.333.825-.685 1.5-1.64 1.5-2.122 0-1.036-1.384-1.161-2.333-.211M147 84.938c0 2.575-.335 2.915-2.711 2.75-3.246-.225-4.187 2.272-1.768 4.691 5.204 5.203 14.187-3.206 9.482-8.876-2.217-2.671-5.003-1.871-5.003 1.435m-46.034 5.86c-13.615 6.229-7.92 25.461 7.116 24.028 4.037-.385 4.219-3.216 1.083-16.826-1.801-7.818-3.531-9.337-8.199-7.202m29.299 1.788c-2.096 2.392-2.372 2.453-4.472.982-8.91-6.241-15.469 3.483-9.37 13.892 5.931 10.12 18.433 7.569 16.256-3.317-.463-2.311-.058-3.078 2.382-4.52 3.431-2.027 3.772-4.79.939-7.623-2.552-2.552-3.027-2.503-5.735.586m-27.452 3.097c.721.289 1.584.253 1.916-.079.332-.332-.258-.568-1.312-.525-1.165.048-1.402.285-.604.604m-3.844 3.376C96.638 103.413 101.02 112 105.573 112c1.335 0 2.427-.45 2.427-1s-.47-1-1.045-1c-1.608 0-6.137-4.897-5.493-5.939.314-.508.077-1.228-.527-1.601-.603-.373-.827-1.754-.497-3.069.737-2.936.012-3.1-1.469-.332m54.697 2.368c-.854 2.228 1.977 4.114 3.846 2.563 1.151-.955 1.241-1.583.378-2.623-1.474-1.776-3.53-1.747-4.224.06m-10.132 2.518c-.965 1.561.305 3.055 2.598 3.055 1.375 0 1.908-.552 1.68-1.739-.384-1.992-3.305-2.891-4.278-1.316m-76.84 8.694c-.933.934.194 2.361 1.865 2.361.793 0 1.441-.675 1.441-1.5 0-1.506-2.111-2.056-3.306-.861m91.666.865c-.85 2.216 2.201 5.335 3.727 3.809 1.556-1.556.72-4.726-1.352-5.125-.957-.185-2.026.407-2.375 1.316m-10.659.128c-1.758 1.758-.641 4.368 1.869 4.368 2.089 0 2.509-.418 2.25-2.24-.317-2.217-2.765-3.482-4.119-2.128m-64.451 4.099c-1.518.529-1.647 2.906-.206 3.796 1.079.667 3.956-1.182 3.956-2.542 0-1.048-2.217-1.789-3.75-1.254m10.417-.064c-.367.366-.667 1.131-.667 1.7 0 .626.466.567 1.183-.15.651-.651.951-1.416.667-1.7-.284-.284-.817-.217-1.183.15m9.583 1.58c-3.725 1.195-4.256 3.445-1.09 4.617 1.808.668 1.897.9.543 1.42-.89.341-2.817 2.52-4.283 4.842-3.261 5.166-1.651 7.376 4.773 6.553 3.302-.423 3.726-.22 4 1.919.295 2.302.415 2.336 3.171.897 1.576-.822 3.44-1.495 4.143-1.495 1.863 0 2.576-2.626 1.886-6.941-.616-3.857-.291-4.453 4.107-7.524 1.82-1.271 1.633-1.348-2.065-.859-3.574.473-4.271.223-5.773-2.069-1.835-2.8-3.964-3.108-9.412-1.36M71 120.941c0 2.693 1.892 3.596 3.714 1.773 1.823-1.822.92-3.714-1.773-3.714-1.255 0-1.941.686-1.941 1.941m54.111 1.712c-10.1 10.101-.578 24.243 13.73 20.39 2.645-.712 4.159-1.694 4.159-2.696 0-1.682-7.366-13.883-11.366-18.826l-2.411-2.979-4.112 4.111m-65.747-1.16c-.346.903-.15 2.121.436 2.707 1.524 1.524 4.41.131 4.012-1.935-.443-2.302-3.647-2.858-4.448-.772m82.082-.406c-1.03 1.668 1.287 3.58 2.667 2.2 1.154-1.154.432-3.287-1.113-3.287-.485 0-1.184.489-1.554 1.087m9.495 4.484c-1.888 2.275 1.232 5.361 3.509 3.471 2.047-1.699 1.956-2.755-.345-3.986-1.416-.758-2.216-.627-3.164.515M127.5 126c-.34.55-.168 1 .382 1s1.278-.45 1.618-1c.34-.55.168-1-.382-1s-1.278.45-1.618 1m35.654.438c.191.917.796 1.644 1.346 1.615 1.484-.079 1.212-2.316-.346-2.835-.841-.28-1.215.177-1 1.22m-52.282 2.312c-1.243 1.586-1.208 1.621.378.378 1.666-1.307 2.195-2.128 1.372-2.128-.207 0-.995.787-1.75 1.75m-28.316.16c-.979 1.584.584 4.09 2.551 4.09 1.353 0 1.893-.714 1.893-2.5 0-2.521-3.168-3.655-4.444-1.59m43.523 1.293c-.211 7.211 6.881 12.922 11.48 9.245 1.886-1.508 1.878-1.534-.309-.932-1.238.34-2.25.187-2.25-.34 0-.528-1.166-1.252-2.591-1.609-1.728-.434-2.405-1.136-2.031-2.109.324-.845-.023-1.458-.826-1.458-.762 0-1.837-1.238-2.39-2.75l-1.004-2.75-.079 2.703m44 .38c.048 1.165.285 1.402.604.605.289-.722.253-1.585-.079-1.917-.332-.332-.568.258-.525 1.312m-100.379.758c-.283.737-.141 1.946.316 2.685 1.006 1.627 3.984-.353 3.984-2.648 0-1.772-3.623-1.803-4.3-.037m-12.006 1.298c-.933.934.194 2.361 1.865 2.361.793 0 1.441-.675 1.441-1.5 0-1.506-2.111-2.056-3.306-.861m113.385 1.944c.048 1.165.285 1.402.604.605.289-.722.253-1.585-.079-1.917-.332-.332-.568.258-.525 1.312m-16.33 4.537c-3.985 2.231-.211 8.908 5.001 8.848 3.972-.046 6.415-2.31 6.595-6.111.183-3.873-2.662-5.173-4.83-2.208-1.248 1.706-1.454 1.716-3.175.158-1.342-1.214-2.316-1.4-3.591-.687m-94.185 2.587c-.542 1.425-.428 1.54.56.56.684-.679.991-1.486.683-1.793-.308-.308-.867.247-1.243 1.233M38.998 152.25 39 157H21v-4.5c0-4.333-.111-4.5-3-4.5-3.22 0-4.4 4.2-1.887 6.713 1.681 1.681.131 3.287-3.172 3.287-1.948 0-2.941.507-2.941 1.5 0 1.266 2.306 1.5 14.757 1.5h14.757l3.044-3.317c1.674-1.824 3.808-3.61 4.743-3.968.934-.359 1.699-1.254 1.699-1.991 0-.736 1.237-1.806 2.75-2.378 2.378-.9 1.702-1.095-5.002-1.443l-7.753-.403.003 4.75m17.819-.741c-3.936 3.73-5.327 4.234-6.194 2.241-.299-.687-.298-.055.001 1.406.428 2.082.096 2.798-1.539 3.317C42.16 160.671 52.701 161 130 161c73.111 0 83-.179 83-1.5 0-1.276-2.609-1.5-17.481-1.5h-17.481l-.606-2.75c-1.271-5.76-2.348-7.913-1.751-3.5.536 3.967.416 4.251-1.803 4.265-1.902.013-2.078.21-.878.985.979.633-17.178.975-52.25.985C68.376 158 67 157.951 67 156.077c0-1.864-4.503-8.086-5.839-8.068-.364.004-2.318 1.579-4.344 3.5m65.996-2.826c.721.289 1.584.253 1.916-.079.332-.332-.258-.568-1.312-.525-1.165.048-1.402.285-.604.604m11.937 1.979c.688.278 1.813.278 2.5 0 .688-.277.125-.504-1.25-.504s-1.937.227-1.25.504m6.519 1.031c.973.254 2.323.237 3-.037.677-.274-.119-.481-1.769-.461-1.65.02-2.204.244-1.231.498m5.981.996c.963.252 2.537.252 3.5 0 .963-.251.175-.457-1.75-.457s-2.713.206-1.75.457m9.019 1.004c.973.254 2.323.237 3-.037.677-.274-.119-.481-1.769-.461-1.65.02-2.204.244-1.231.498m6.544.99c.721.289 1.584.253 1.916-.079.332-.332-.258-.568-1.312-.525-1.165.048-1.402.285-.604.604m4.937.979c.688.278 1.813.278 2.5 0 .688-.277.125-.504-1.25-.504s-1.937.227-1.25.504M13 191.941c0 19.093.35 29.059 1.02 29.059s.982-8.575.907-24.945c-.062-13.719.184-25.426.549-26.016 1.45-2.346 2.524.403 2.524 6.461 0 3.51.451 6.661 1.003 7.002.67.414.67 1.241 0 2.493-.555 1.037-1.003 9.3-1.003 18.507v16.633l7.576-.282c7.525-.28 7.586-.304 8.952-3.574.756-1.81 2.476-3.71 3.821-4.222 2.349-.893 2.471-1.395 3.08-12.743.35-6.498.835-13.052 1.078-14.564.399-2.477.151-2.75-2.497-2.75-1.916 0-3.312-.696-4.01-2-.589-1.1-1.73-2-2.535-2-1.238 0-1.465 3.11-1.465 20.059 0 13.118-.346 19.845-1 19.441-.615-.38-1-8.677-1-21.559 0-20.382.054-20.941 2.031-20.941 1.118 0 2.275-.787 2.573-1.75.298-.963.971-2.55 1.495-3.528 2.255-4.208-1.751-6.674-10.599-6.522-4.4.075-6.312.313-4.25.528 3.201.335 3.75.75 3.75 2.832 0 1.502-.577 2.44-1.5 2.44-.825 0-1.5-.675-1.5-1.5 0-1.09-1.123-1.5-4.107-1.5-3.2 0-3.983-.324-3.544-1.468.31-.807.133-1.734-.393-2.059-.6-.371-.956 10.235-.956 28.468M40.5 165c-.782 1.266.542 1.266 2.5 0 1.293-.835 1.266-.971-.191-.985-.93-.008-1.969.435-2.309.985m11.318 1.5c2.389 2.01 4.059 2.5 8.529 2.5 6.567 0 9.959 1.335 11.712 4.61l1.279 2.39H155v7c0 7.348.251 7.892 2.571 5.571 1.074-1.073 1.429-4.304 1.429-13V164H48.847l2.971 2.5m110.182 4v6.5l5.25-.032c5.006-.03 10.719-3.04 10.764-5.67.007-.439 2.595-2.243 5.75-4.009l5.736-3.211-13.75-.039L162 164v6.5m28.432-4.715c.405 1.277-.358 2.328-2.683 3.695-1.787 1.051-4.599 3.181-6.249 4.733l-3 2.822 12-.268 12-.267.313-3.25c.444-4.606 3.187-4.391 3.187.25v3.5H216.973l-2.331-6.25c-2.203-5.907-2.517-6.259-5.736-6.423-3.391-.172-3.392-.17-.406.51 3.367.766 4.278 4.389 1.25 4.973-1.068.205-1.75-.277-1.75-1.237 0-1.169-1.028-1.573-4-1.573-3.844 0-5.356-1.286-2.75-2.338.688-.277-1.593-.54-5.067-.583-5.627-.07-6.256.116-5.751 1.706m-148.797 5.288c-2.825 2.221-3.373 4.789-1.435 6.727 1.592 1.592 2.342 1.515 4.293-.436 2.962-2.962 3.3-.082 1.951 16.636-.732 9.075-1.356 17.963-1.387 19.75-.047 2.682-.45 3.253-2.307 3.265-3.356.023-4.966 1.433-4.587 4.02.514 3.522 3.014 3.822 2.641.316-.275-2.574-.004-2.857 2.788-2.914 5.876-.121 7.736-3.219 8.219-13.69.418-9.067 1.338-12.747 3.187-12.747.51 0 3.319-.895 6.242-1.989 12.984-4.858 10.604-17.524-3.164-16.841-5.024.249-6.323-.053-8.329-1.938-2.951-2.773-4.745-2.808-8.112-.159M41 174.941c0 1.068.399 2.188.887 2.489 1.218.753 3.438-2.095 2.64-3.386-1.095-1.771-3.527-1.153-3.527.897m15.138 1.953c-1.711 1.083-3.318 9.265-2.073 10.546 1.539 1.581 7.8-2.055 8.527-4.952 1.053-4.192-3.052-7.75-6.454-5.594M75 180.289c0 .708-.893 3.04-1.985 5.181-2.541 4.984-2.719 4.897 7.663 3.706 4.852-.556 9.722-.974 10.822-.929 7.845.327 25.045-3.518 28.224-6.309L123.07 179H99.035C80.09 179 75 179.273 75 180.289m65.8-.089c.66.66 1.2 3.135 1.2 5.5 0 3.496.341 4.3 1.826 4.3 1.004 0 2.869 1.111 4.145 2.469 3.298 3.511 4.029 2.417 4.029-6.028V179h-6.2c-4.822 0-5.933.267-5 1.2M162 182c0 1.1.45 2 1 2s1-.45 1-1 .648-1 1.441-1 1.719-.45 2.059-1c.361-.583-.656-1-2.441-1-2.392 0-3.059.436-3.059 2m11.5-1c-.401.649 4.323 1 13.441 1H201v33h-6v-25h-15.45c-13.365 0-15.576-.224-16.381-1.662-.607-1.084-.987 4.309-1.093 15.5L161.913 221h16.544c11.428 0 16.543-.342 16.543-1.107 0-.609.638-.862 1.418-.563.779.299 2.579-.454 4-1.675l2.582-2.219V180h-14.441c-8.549 0-14.693.408-15.059 1m32.499.25c-.001.886 1.56 1.153 5.367.915 4.934-.308 5.411-.146 5.898 2 1.395 6.155 4.663 13.369 4.7 10.374.02-1.628-.974-5.565-2.209-8.75L217.51 180h-5.755c-3.937 0-5.755.395-5.756 1.25M91 182.5c0 .825.177 1.5.393 1.5.216 0 .652-.675.969-1.5.316-.825.139-1.5-.393-1.5-.533 0-.969.675-.969 1.5m34.465.452c-4.691 1.901-6.219 8.548-1.965 8.548 1.155 0 1.88-.572 1.715-1.354-.654-3.112.921-5.266 3.621-4.954 4.251.492 3.755 5.526-.836 8.481-6.917 4.453-8 5.449-8 7.355 0 2.614 4.267 3.583 9.554 2.169 2.294-.614 5.757-.858 7.696-.544 5.805.942 10.966-6.41 5.27-7.507-1.698-.327-1.779-.163-.616 1.239 1.136 1.368 1.105 1.615-.198 1.615-.847 0-1.716.53-1.932 1.177-.233.7-.926.847-1.709.363-.967-.597-1.176-2.57-.786-7.421.689-8.589-.168-10.137-5.564-10.056-2.318.035-5.131.435-6.25.889m100.285 1.128c-1.347.785-1.75 2.35-1.75 6.803 0 6.32.607 7.688 2.658 5.986 1.047-.869 1.342-.673 1.342.892 0 1.165.839 2.225 2 2.529 3.003.785 3.066-14.649.066-16.255-2.302-1.232-2.12-1.234-4.316.045m-132.167.786c-.431.697-.513 1.537-.183 1.867.895.895 1.871-.421 1.387-1.871-.338-1.016-.574-1.016-1.204.004m112.577 13.519L206 213.27l2-2.543c1.1-1.398 2-3.034 2-3.635 0-.6.845-1.092 1.878-1.092 1.032 0 2.433-.67 3.113-1.49 1.695-2.041-3.59-14.51-6.15-14.51-1.185 0-1.839-1.004-2.118-3.25-.221-1.787-.475 3.448-.563 11.635m-102.955-6.879c-12.475 1.699-16.997 5.963-10.7 10.089 3.292 2.158 5.858.328 5.259-3.75-.621-4.231 5.216-5.619 7.295-1.735.974 1.82.285 3.487-5.007 12.124-3.375 5.508-5.958 10.193-5.74 10.411.218.218 2.599-.066 5.292-.631 2.693-.565 9.583-1.414 15.311-1.887 12.34-1.018 16.19-3.879 11.514-8.556-3.227-3.226-10.613-1.057-8.387 2.463 1.65 2.608 1.055 2.966-4.935 2.966-8.973 0-8.703-3.205 1.381-16.417 5.585-7.316 5.486-7.361-11.283-5.077M60 194c-1.375 1.076-1.937 1.966-1.25 1.978.688.012 1.25.895 1.25 1.963 0 3.152 1.51 3.18 4.477.083 4.731-4.938.991-8.301-4.477-4.024m19.586.043c-1.603.48-3.22.683-3.594.452-2.854-1.764-10.829 4.002-8.607 6.223.828.828 3.589-1.709 3.333-3.064-.125-.661 1.356-1.285 3.467-1.46 4.314-.359 7.413 3.134 4.637 5.227-.787.593-2.9 3.663-4.696 6.822l-3.265 5.743 7.82-.625c14.719-1.176 15.819-1.516 15.819-4.889 0-2.636-.34-2.972-3-2.972-2.533 0-3 .389-3 2.5 0 2.109-.528 2.55-3.377 2.823-6.424.614-6.645-3.366-.623-11.255 1.925-2.522 3.5-5.031 3.5-5.577 0-1.186-4.364-1.159-8.414.052m48.312 2.247c-4.143 2.792-4.404 5.094-.626 5.529 2.354.27 2.996-.217 4.25-3.218 2.323-5.56 1.745-5.929-3.624-2.311m28.339-1.04c-.554.688-1.172 6.65-1.372 13.25-.359 11.809-.329 12.005 1.885 12.32 2.238.317 2.25.25 2.25-13.25 0-12.938-.493-15.136-2.763-12.32m-62.901 2.317c-.722 1.881 1.048 3.932 2.577 2.987 1.648-1.019 1.303-4.554-.444-4.554-.843 0-1.802.705-2.133 1.567m55.295 3.922c-3.774 4.467-8.955 6.882-13.263 6.183-3.263-.529-3.368-.442-3.368 2.809 0 5.756-1.367 7.252-9 9.85-.825.281.38.547 2.679.59 2.555.048 4.788-.531 5.75-1.492 1.428-1.429 1.571-1.429 1.571 0 0 1.318 1.53 1.571 9.5 1.571h9.5v-11.5c0-6.325-.113-11.479-.25-11.453-.137.026-1.541 1.575-3.119 3.442m74.922.426a1.116 1.116 0 0 0 .362 1.532c.521.322 1.21.159 1.532-.362a1.116 1.116 0 0 0-.362-1.532 1.116 1.116 0 0 0-1.532.362m4.746.718c.348.348-.526 1.544-1.943 2.659-2.19 1.723-2.499 2.602-2.061 5.867.726 5.413-2.649 5.473-5.101.091-.951-2.086-2.482-3.812-3.451-3.889-2.134-.17-2.31 1.484-.243 2.277 1.817.697 2.007 3.362.241 3.362-.693 0-1.822.9-2.509 2-1.372 2.197-3.742 2.771-2.953.714.295-.767-.266-1.285-1.393-1.285-1.993 0-2.578 2.025-.886 3.071 1.61.995 1.148 2.771-.552 2.118-.89-.341-1.291-.173-.941.393.374.605 9.412.989 23.252.989 14.939 0 22.304-.337 21.651-.99-1.853-1.853-17.732-6.088-18.805-5.015-.553.553-1.702.991-2.555.973-1.304-.027-1.273-.242.2-1.36 2.859-2.17 2.514-12.608-.417-12.608-1.191 0-1.882.285-1.534.633m-173.466 2.834c-.902 1.979-.903 2.863-.006 3.76.897.897 1.173.681 1.173-.92 0-1.151.581-2.316 1.292-2.589 1.538-.59 4.708 1.525 4.708 3.142 0 .627.337 1.14.75 1.14s.709-1.462.659-3.25c-.126-4.536-6.649-5.512-8.576-1.283M91 207.878c0 1.167.423 2.122.941 2.122 1.732 0 2.053-1.76.548-3.009-1.239-1.029-1.489-.88-1.489.887m29 1.955c0 2.547 1.067 3.356 2.67 2.026 1.023-.849 1.077-1.459.22-2.492-1.588-1.912-2.89-1.702-2.89.466m-61 1.013c0 .517.675 1.199 1.5 1.516 2.132.818 1.856 3.377-.5 4.638-1.52.814-2 2.094-2 5.335 0 5.256 1.311 6.665 6.2 6.665 5.734 0 9.706-4.694 6.6-7.8-1.602-1.602-2.862-1.525-2.225.135.736 1.918-2.954 6.167-4.516 5.201-.912-.563-1.095-2.494-.655-6.909.571-5.732.448-6.243-1.897-7.924-1.379-.988-2.507-1.374-2.507-.857m19.75 6.87c-1.573.239-2.75 1.05-2.75 1.896 0 2.369 13.356 1.535 13.813-.862.342-1.794-3.609-2.163-11.063-1.034M48 221c0 .55.477 1 1.059 1s.781-.45.441-1-.816-1-1.059-1-.441.45-.441 1m-3 2c0 .55.477 1 1.059 1s.781-.45.441-1-.816-1-1.059-1-.441.45-.441 1m123.25 4.716c1.512.229 3.988.229 5.5 0s.275-.416-2.75-.416-4.262.187-2.75.416M253 235.5c0 6.025.127 6.23 2.429 3.929 1.859-1.86 2.07-6.53.371-8.229-2.19-2.19-2.8-1.254-2.8 4.3m-50.541-1.433c-.363.586-.445 1.281-.183 1.543s.743-.218 1.069-1.067c.676-1.762.1-2.072-.886-.476M53 234.922c0 .508-1.462 1.424-3.25 2.036-4.511 1.544-8.007 4.694-11.645 10.488-2.398 3.819-3.105 4.438-3.105 2.718 0-3.479 2.555-8.739 5.117-10.533 2.317-1.623 2.309-1.631-1.694-1.631-2.213 0-4.619.563-5.348 1.25-1.06 1-1.417 1-1.783 0-.307-.835-2.753-1.25-7.375-1.25-6.711 0-6.917.074-6.917 2.5 0 1.375.405 2.5.9 2.5.928 0 3.645 9.788 2.919 10.514-1.414 1.414-4.695-.877-3.76-2.624.689-1.288.681-1.89-.024-1.89-.569 0-1.035.54-1.035 1.2 0 .897-.315.88-1.25-.067-1.002-1.016-.865-1.552.691-2.7C17.224 246.117 17 246 12.691 246H8v11.89l4.75.305c6.525.419 6.715 3.168.25 3.618-7.391.514-7.445 2.337-.06 1.99 6.338-.298 6.454-.355 7.279-3.553.743-2.882 1.232-3.25 4.31-3.25 1.909 0 3.471.45 3.471 1s-.938 1-2.083 1c-4.819 0-.957 2.516 4.291 2.796l5.55.297.685-5.485c1.916-15.334 18.952-23.771 33.057-16.372 6.028 3.163 11.433 11.886 11.478 18.526l.022 3.263 36.75-.263 36.75-.262.32-2.25c.205-1.446 1.009-2.25 2.25-2.25 1.771 0 1.93-.781 1.93-9.5V238H74.102l3.467 3.75c1.907 2.063 4.419 6.338 5.583 9.5l2.116 5.75h15.807c21.066 0 21.595 1.716.68 2.202-17.038.396-19.755-.043-19.755-3.19 0-5.688-7.406-15.365-14.149-18.489-2.646-1.226-4.52-2.521-4.164-2.876.355-.356-1.904-.647-5.02-.647-3.117 0-5.667.415-5.667.922m162.329-.26c.364.364-1.023 1.463-3.083 2.44-6.947 3.298-9.139 6.048-15.056 18.898-1.374 2.984-.575-3.709.925-7.75 1.286-3.464.091-2.664-1.495 1-1.719 3.972-4.545 7.694-4.588 6.043-.018-.663 1.694-4.802 3.804-9.197l3.835-7.991-18.835-.032L162 238.04V257h11.941c6.882 0 12.203.424 12.559 1 .396.64-2.91 1.005-9.191 1.014-10.427.014-14.631.657-13.739 2.1.302.487 8.571.886 18.376.886h17.828l1.204-6.383c3.767-19.963 29.524-24.297 38.411-6.464 1.436 2.882 2.611 5.826 2.611 6.543 0 .717.45 1.304 1 1.304s1 .45 1 1-.675 1-1.5 1-1.5.675-1.5 1.5c0 1.66 3.53 2.069 4.487.521.666-1.078-1.333-8.96-2.656-10.471-1.154-1.319-1.038-2.55.24-2.55 1.86 0 3.754 2.588 4.098 5.597.292 2.561.772 2.94 4.081 3.213l3.75.311V243h-8.465c-7.317 0-8.604-.26-9.49-1.916-.99-1.85-.891-1.862 2.895-.375 4.564 1.792 11.06 1.056 11.06-1.254 0-1.169-1.829-1.455-9.301-1.455-8.597 0-14.671-1.344-14.691-3.25-.004-.412-2.783-.75-6.175-.75-3.391 0-5.868.298-5.504.662M12 240.5c0 1.375.45 2.5 1 2.5s1-1.125 1-2.5-.45-2.5-1-2.5-1 1.125-1 2.5m189.306.5c-.623 1.65-1.031 3-.907 3 .124 0 1.223-1.35 2.443-3 1.488-2.013 1.786-3 .907-3-.721 0-1.82 1.35-2.443 3M54.5 242.931c-15.925 3.83-18.32 26.522-3.428 32.481 5.522 2.21 7.928 2.064 7.928-.479 0-1.582.45-1.925 1.916-1.46 1.054.335 2.205.14 2.559-.432.955-1.546 2.525-1.26 2.525.459 0 1.803 1.953 2.034 2.111.25.061-.687.024-2.295-.081-3.572-.133-1.612.451-2.491 1.91-2.873 1.583-.413 1.838-.868 1.033-1.838-.686-.826-.718-1.506-.091-1.894.539-.333 1.265-.145 1.613.418 1.039 1.682 3.505-1.557 3.505-4.604 0-10.022-11.536-18.852-21.5-16.456m163-.046c-11.156 2.288-16.938 15.486-11.213 25.595 4.482 7.913 14.979 10.805 23.21 6.394 17.322-9.284 7.321-35.951-11.997-31.989M50.4 251.4c-4.724 4.724-4.838 10.893-.296 16.065 3.17 3.611 7.896 4.893 7.896 2.142 0-2.083 2.505-2.642 4.759-1.063 2.952 2.068 5.982-1.292 4.188-4.644-1.048-1.958-.913-2.509.996-4.055 2.664-2.157 2.171-4.44-1.895-8.794-4.25-4.549-10.898-4.401-15.648.349m40.059-2.333c-.363.586-.454 1.272-.202 1.523.697.698 3.743-.683 3.743-1.697 0-1.252-2.743-1.117-3.541.174m123.684 1.466c-6.026 5.07-6.234 13.89-.436 18.451 2.973 2.339 7.293 2.693 7.293.599 0-1.946 2.048-2.482 4.787-1.254 2.917 1.308 6.442-1.5 4.42-3.522-1.861-1.861-1.431-4.601.835-5.32 1.557-.494 1.879-1.163 1.355-2.818-2.614-8.26-11.985-11.411-18.254-6.136M167 250.059c0 .582.45.781 1 .441s1-.816 1-1.059-.45-.441-1-.441-1 .477-1 1.059m-106 2.365c0 1.714 2.277 2.641 3.947 1.608 1.297-.801.872-1.254-2.197-2.346-1.115-.397-1.75-.129-1.75.738m32 .076c-1.04 1.253-.896 1.5.878 1.5 1.22 0 2.122-.638 2.122-1.5 0-.825-.395-1.5-.878-1.5-.482 0-1.437.675-2.122 1.5m76.638 0c-.316.825-.139 1.5.393 1.5.533 0 .969-.675.969-1.5s-.177-1.5-.393-1.5c-.216 0-.652.675-.969 1.5m54.362-.142c0 1.688 2.688 2.956 3.496 1.648.308-.498-.353-1.394-1.468-1.991-1.597-.855-2.028-.782-2.028.343m-172.02 1.166c-.696.838-.995 1.794-.666 2.124 1.024 1.024 3.686-.505 3.686-2.117 0-1.958-1.398-1.962-3.02-.007m162.541.452c-1.783 1.971-1.776 2.024.265 2.024 2.442 0 3.856-1.758 2.503-3.111-.582-.582-1.629-.17-2.768 1.087m-158.866 2.853C52.348 260.482 54.198 265 59 265c5.086 0 6.911-5.548 2.777-8.443-2.879-2.017-4.1-1.963-6.122.272m162.95-.53c-2.199 1.608-1.837 6.541.592 8.062 5.075 3.176 10.53-4.337 5.638-7.764-2.764-1.936-3.914-1.991-6.23-.298M57.25 257.662c-.687.278-1.25 1.622-1.25 2.988 0 3.139 5.243 3.112 5.84-.03.493-2.599-1.807-4.081-4.59-2.958m162.321.909c-1.93 1.931-1.93 1.927-.002 3.856 1.185 1.184 2.043 1.316 3.5.536 2.331-1.247 2.544-4.514.349-5.356-2.117-.812-2.054-.828-3.847.964M50 262.95c0 1.703 1.221 4.05 2.107 4.05 1.509 0 .987-3.75-.607-4.362-.825-.316-1.5-.176-1.5.312m162.633-.25c-.769.769 1.204 4.3 2.402 4.3 1.508 0 1.131-3.722-.437-4.324-.771-.296-1.656-.285-1.965.024m-140.966 5.967c-.367.366-.667 1.131-.667 1.7 0 .626.466.567 1.183-.15.651-.651.951-1.416.667-1.7-.284-.284-.817-.217-1.183.15" fill-rule="evenodd"/></svg>