<svg xmlns="http://www.w3.org/2000/svg" viewBox="0 0 264 290"><path fill="#fbfaf9" stroke="#fbfaf9" d="M135.973 7.677c-1.36.922-4.209 3.214-6.331 5.094l-3.857 3.418-7.643-.671c-9.11-.8-13.02 1.121-17.017 8.361-2.826 5.119-6.669 7.676-12.955 8.618-9.335 1.4-13.935 5.203-16.123 13.327-1.569 5.83-4.686 8.924-11.013 10.937-6.61 2.103-9.461 5.75-10.347 13.237-.77 6.495-3.524 10.98-8.44 13.743-7.133 4.009-7.747 5.297-7.747 16.26v9.789l-4.75 4.425c-4.732 4.408-5.425 6.218-4.849 12.657.68 7.58 11.764 12.853 17.935 8.531 2.307-1.616 14.227-.653 31.664 2.56 20.293 3.738 29.473 5.375 39.5 7.041 15.123 2.514 4.114 1.55-17.767-1.554-16.764-2.379-25.857-3.097-17.733-1.401 2.2.46 23.125 3.845 46.5 7.523 23.375 3.679 42.932 7.084 43.459 7.568.553.506-20.659.769-50 .619L67.5 157.5l-.338-2.5c-.185-1.375-1.221-3.454-2.301-4.62-1.389-1.498-1.776-2.869-1.322-4.677.775-3.09-.228-6.706-1.856-6.695-1.268.008-3.683 4.471-3.683 6.807 0 1.163-2.044 1.341-11.455.998l-11.454-.419-.361 5.053-.36 5.053-.185-5.125c-.17-4.723-.377-5.125-2.637-5.125-2.237 0-2.484.45-2.815 5.125l-.363 5.125-.185-5.125c-.171-4.751-.368-5.125-2.685-5.125-2.318 0-2.513.373-2.68 5.125l-.18 5.125-.375-4.75c-.39-4.939-2.002-5.939-6.683-4.143-1.824.7-2.137 5.438-.469 7.106 1.694 1.694.121 3.287-3.245 3.287-2.332 0-2.939.396-2.68 1.75.286 1.499 1.912 1.829 11.323 2.302 9.205.463 9.824.585 3.812.75-5.892.163-7.258.511-7.634 1.948-.435 1.667-.463 1.667-.573 0-.069-1.045-.922-1.75-2.116-1.75-1.954 0-2 .667-2 29 0 25.111.201 29 1.5 29 2.117 0 1.877 1.985-.25 2.068-1.393.054-1.291.289.5 1.152 3.252 1.569 3.252 8.249 0 9.214l-2.25.668 2.25.917c1.725.703 2.25 1.726 2.25 4.39 0 1.91.45 3.751 1 4.091 2.169 1.341.769 2-4.248 2H7.5v13l4.75.305c6.139.394 6.145 1.996.009 2.39-3.572.23-4.823.736-5.073 2.055-.286 1.506.487 1.75 5.541 1.75 6.339 0 8.273-1.099 8.273-4.7 0-1.265.45-2.3 1-2.3s1 .659 1 1.465c0 2.291 3.628 3.67 8.784 3.338l4.716-.303.646-5.294c3.098-25.381 40.952-24.685 43.222.794l.401 4.5 34.865.279c37.432.299 38.921.2 39.832-2.673.33-1.04 1.485-2.122 2.567-2.404 1.23-.322 1.984-1.393 2.012-2.858.041-2.143.157-2.087 1.349.656.717 1.65 1.111 3.528.877 4.173-1.005 2.769 3.93 3.511 21.072 3.169l17.13-.342.774-5.5c2.582-18.333 25.985-24.817 36.227-10.038 2.887 4.167 4.625 12.038 2.658 12.038-.623 0-1.132-.918-1.132-2.04 0-3.99-3.92-9.829-8.336-12.417-16.835-9.866-34.93 9.275-24.186 25.586 7.978 12.113 28.976 8.74 32.025-5.144.531-2.417 1.069-2.938 2.547-2.469 3.901 1.238 8.211-4 4.95-6.016-.55-.34-.982-1.379-.96-2.309.027-1.131.544-.761 1.562 1.116 1.306 2.408 2.044 2.763 5.21 2.5l3.688-.307.292-7.169c.274-6.711.146-7.218-2-7.927l-2.292-.757 2.491-.616c3.467-.859 4.937-5.286 2.938-8.849-1.773-3.157-4.309-3.524-4.714-.682-.267 1.879-.923 1.981-10.804 1.685l-10.52-.316.305-4.184.304-4.185 11.5-.551 11.5-.55-11.5-.393-11.5-.393 10-.557c13.105-.729 13.373-2.338 1-6.002-10.626-3.146-10.201-2.313-10.382-20.335-.095-9.474-.412-11.895-1.618-12.357-.825-.317-1.5-1.133-1.5-1.814 0-2.005-3.372-4.475-7.066-5.177-4.781-.908-5.662-1.833-7.6-7.979-1.676-5.318-1.753-5.392-5.624-5.392-3.077 0-3.8.324-3.348 1.5.35.914.001 1.5-.893 1.5-.808 0-1.469-.675-1.469-1.5 0-.925-1.054-1.57-2.75-1.683-1.512-.101.846-.439 5.24-.75 6.545-.465 8.051-.884 8.324-2.317.306-1.611-1.014-1.75-16.618-1.75-12.368 0-17.218-.338-17.939-1.25-.923-1.169-8.014-26.303-19.255-68.25-8.545-31.884-10.288-37.655-11.02-36.471-1.011 1.635-2.046-2.979-1.359-6.059.451-2.024.339-2.199-.617-.97-.941 1.209-1.047.95-.547-1.334.356-1.626.23-2.592-.297-2.266-.505.312-1.177-.723-1.492-2.3a134.458 134.458 0 0 0-1.171-5.248c-.441-1.757.175-3.246 2.347-5.68 8.392-9.399-.135-27.099-9.873-20.495m13.106 47.906c.048 1.165.285 1.402.604.605.289-.722.253-1.585-.079-1.917-.332-.332-.568.258-.525 1.312m1.12 3.917c0 1.1.361 3.125.801 4.5.634 1.98.801 2.084.801.5 0-1.1-.361-3.125-.801-4.5-.634-1.98-.801-2.084-.801-.5m6.88 28.083c.048 1.165.285 1.402.604.605.289-.722.253-1.585-.079-1.917-.332-.332-.568.258-.525 1.312m1.751 7.92c-.612.612 3.391 16.051 4.43 17.091.407.407.76 2.127.785 3.823.046 3.14 2.726 10.269 2.874 7.644.074-1.313-6.789-28.232-7.345-28.811-.133-.138-.467-.024-.744.253m8.17 33.879c0 .825.45 1.778 1 2.118.55.34 1-.057 1-.882s-.45-1.778-1-2.118c-.55-.34-1 .057-1 .882m-95.187 11.301c.721.289 1.584.253 1.916-.079.332-.332-.258-.568-1.312-.525-1.165.048-1.402.285-.604.604M31.272 152c0 2.475.195 3.488.434 2.25.238-1.238.238-3.262 0-4.5-.239-1.238-.434-.225-.434 2.25m-6.02.5c.011 2.2.216 2.982.455 1.738.239-1.244.23-3.044-.02-4s-.446.062-.435 2.262m12 0c.011 2.2.216 2.982.455 1.738.239-1.244.23-3.044-.02-4s-.446.062-.435 2.262m102.561-2.817c.721.289 1.584.253 1.916-.079.332-.332-.258-.568-1.312-.525-1.165.048-1.402.285-.604.604m68.202 16.067c.009.412.434 1.412.946 2.221 1.152 1.822 2.504.682 1.694-1.428-.598-1.558-2.668-2.18-2.64-.793m-192.091 9.833c-.201 15.619.277 44.777.754 46.02.406 1.058 2.513 1.356 8.679 1.229 4.479-.093 6.343-.318 4.143-.5-2.2-.183-5.914-.585-8.254-.894l-4.254-.562.045-25.063c.025-13.785-.198-25.308-.496-25.605-.297-.298-.575 2.121-.617 5.375m187.591-2.535c.358 1.126.092 2.72-.59 3.542-1.849 2.228.24 3.948 2.831 2.33 1.45-.905 3.416-.996 7.235-.332l5.244.912 2.312 6c1.802 4.677 2.328 5.394 2.383 3.25.038-1.512 1.005-3.685 2.147-4.827 4.194-4.194-1.034-6.907-13.327-6.917L205 177v-3c0-1.65-.48-3-1.067-3-.621 0-.796.857-.418 2.048M81.75 177.732c2.337.211 6.162.211 8.5 0 2.337-.21.425-.383-4.25-.383s-6.588.173-4.25.383m82.643 5.686c-1.796 4.68-.751 5.054 15.619 5.582l15.488.5.28 12.816c.276 12.596.319 12.81 2.5 12.5 2.188-.311 2.22-.55 2.22-16.316v-16l-17.772-.273c-14.862-.229-17.865-.033-18.335 1.191m43.274-.751c-1.618 1.617-.645 6.197 1.383 6.513 1.571.245 3.049 2.774 6.326 10.82 6.855 16.832 7.942 18.105 7.912 9.264-.009-2.749-1.575-9.522-3.702-16.014L215.9 182h-3.783c-2.081 0-4.084.3-4.45.667M103 222c0 .55.702 1 1.559 1s1.281-.45.941-1c-.34-.55-1.041-1-1.559-1s-.941.45-.941 1m74.5-.002-15 .584 19.691.209c10.83.115 19.91-.146 20.178-.579.584-.944-4.899-.992-24.869-.214m-97.236.72c1.52.229 3.77.223 5-.014 1.23-.237-.014-.425-2.764-.418-2.75.008-3.756.202-2.236.432m33.512.015c2.352.212 5.952.209 8-.006s.124-.388-4.276-.384c-4.4.003-6.076.179-3.724.39m15.974-.071c.688.278 1.813.278 2.5 0 .688-.277.125-.504-1.25-.504s-1.937.227-1.25.504m12.5.077c3.162.198 8.338.198 11.5 0 3.162-.198.575-.361-5.75-.361s-8.912.163-5.75.361m74.526-.006c2.352.212 5.952.209 8-.006s.124-.388-4.276-.384c-4.4.003-6.076.179-3.724.39m-199.109 1.934c-.367.366-.667 2.391-.667 4.5V233h6c3.333 0 6 .444 6 1s-2.667 1-6 1-6 .444-6 1c0 .985 10.053 1.477 20.907 1.021l5.408-.226-3.158 3.83c-4.204 5.101-4.034 6.45.257 2.031 1.878-1.934 4.916-4.335 6.75-5.336l3.336-1.82-10.5-.511c-5.775-.281-9.825-.829-9-1.218.825-.39 2.175-.651 3-.582.825.069 6.595.055 12.823-.031L58.145 233l-2.072-2.635c-1.14-1.449-2.073-3.249-2.073-4 0-1.777-1.513-1.73-4.36.135-3.602 2.36-10.205 2.198-13.63-.335-2.914-2.154-16.572-3.27-18.343-1.498m57.853.956c-.836.836-1.52 1.944-1.52 2.463 0 .519-1.463 1.835-3.25 2.925l-3.25 1.982 46.25.003L160 233v-8l-6.75-.12c-52.212-.928-76.289-.698-77.73.743m93.23-.891-6.75.359V233h8.941c4.918 0 9.219.45 9.559 1 .396.64-2.823 1-8.941 1-5.706 0-9.559.403-9.559 1 0 1.009 13.642 1.48 29.75 1.028 9.384-.263 9.404-.239 5.733 7.005-3.24 6.395-2.518 6.37 1.431-.048 4.91-7.979 4.465-8.985-3.973-8.985-4.451 0-6.831-.369-6.441-1 .34-.55 3.741-1 7.559-1H203v-8.837l-13.75.105c-7.562.057-16.787.266-20.5.464m36.948-.096c-.384.383-.698 2.422-.698 4.531V233H229.115l-.308-4.25-.307-4.25-11.052-.281c-6.079-.154-11.367.033-11.75.417M97.683 226.65c-.997.998-.836 4.35.21 4.35 1.306 0 2.316-3.191 1.323-4.184-.467-.467-1.157-.542-1.533-.166m24.011.084c-.244.421-.126 1.642.263 2.712.673 1.852.735 1.84 1.281-.249.555-2.12-.639-4.025-1.544-2.463M165.5 227c-.384.621 1.49 1 4.941 1 3.057 0 5.559-.45 5.559-1s-2.223-1-4.941-1-5.219.45-5.559 1m-63.32 2.25c.176 1.238.995 2.25 1.82 2.25.825 0 1.644-1.012 1.82-2.25.245-1.732-.174-2.25-1.82-2.25-1.646 0-2.065.518-1.82 2.25m5.261-1.154c-1.222 1.976 1.997 4.286 3.481 2.498.688-.829.96-1.976.605-2.55-.845-1.368-3.228-1.337-4.086.052m5.739 1.154c.176 1.238.995 2.25 1.82 2.25.825 0 1.644-1.012 1.82-2.25.245-1.732-.174-2.25-1.82-2.25-1.646 0-2.065.518-1.82 2.25M126 229c0 1.111.667 2 1.5 2s1.5-.889 1.5-2-.667-2-1.5-2-1.5.889-1.5 2m5.315 0c.109 1.473.801 2.5 1.685 2.5s1.576-1.027 1.685-2.5c.106-1.444-.03-1.761-.324-.75-.279.963-.892 1.75-1.361 1.75s-1.082-.787-1.361-1.75c-.294-1.011-.43-.694-.324.75m5.685-.059c0 1.068.402 2.19.894 2.493.491.304.829-.569.75-1.94-.168-2.916-1.644-3.413-1.644-.553m5-.108c0 1.009.675 1.834 1.5 1.834s1.5-.825 1.5-1.834c0-1.008-.675-1.833-1.5-1.833s-1.5.825-1.5 1.833m40 5.226c0 .582.45.781 1 .441s1-.816 1-1.059-.45-.441-1-.441-1 .477-1 1.059m-115.344 1.997c.714.714 16.024 1.03 47.2.974l46.144-.082.03 3.276c.027 2.833.177 3.024 1.111 1.417.795-1.367.742-2.491-.199-4.25l-1.28-2.391h-47.031c-33.027 0-46.716.315-45.975 1.056M203 236c0 .55.9 1 2 1s2 .462 2 1.026c0 .584 1.292.357 3-.526 4.104-2.122 3.802-2.5-2-2.5-2.75 0-5 .45-5 1m28-.064c0 .514 4.726 1.077 10.502 1.25 7.904.236 10.502.005 10.5-.936-.001-.921-2.77-1.25-10.502-1.25-5.852 0-10.5.414-10.5.936m-219.616 2.506c-.881 2.295.01 5.058 1.63 5.058.946 0 1.6-1.182 1.799-3.25.331-3.425-2.28-4.802-3.429-1.808M75.687 242c1.2 1.375 3.331 4.975 4.737 8 1.406 3.025 2.561 4.698 2.566 3.718.018-3.211-2.68-8.162-6.113-11.218-2.478-2.206-2.793-2.338-1.19-.5m127.185-.25c-1.243 1.586-1.208 1.621.378.378 1.666-1.307 2.195-2.128 1.372-2.128-.207 0-.995.787-1.75 1.75M50.45 243.407c-3.992 1.739-8.114 6.724-9.406 11.374-4.807 17.309 15.81 30.477 29.025 18.538 15.52-14.021-.395-38.286-19.619-29.912m109.745 5.093c.02 1.65.244 2.204.498 1.231.254-.973.237-2.323-.037-3-.274-.677-.481.119-.461 1.769m-108.536 2.554c-3.279 2.579-5.361 8.9-3.81 11.57.6 1.032 1.104 1.314 1.121.626.016-.687.93-1.25 2.03-1.25 1.1 0 2-.413 2-.918 0-.505.273-1.63.607-2.5.435-1.134.01-1.582-1.5-1.582-2.774 0-2.695-2.475.143-4.463 2.096-1.469 2.312-1.439 3.153.443 1.136 2.543 6.158 2.924 5.187.393-.344-.894-.112-2.244.515-3 1.96-2.361-6.339-1.763-9.446.681m162.295.696c-3.69 3.297-5.738 12.149-2.526 10.916.954-.366 2.321-.666 3.037-.666.716 0 1.517-1.125 1.78-2.5.376-1.97.067-2.5-1.457-2.5-2.56 0-1.995-2.792.962-4.752 2.095-1.389 2.25-1.346 2.25.63 0 1.676.611 2.122 2.906 2.122 2.462 0 2.823-.322 2.357-2.102-.322-1.232.027-2.468.844-2.985.933-.591-.004-.887-2.841-.898-3.22-.011-4.972.644-7.312 2.735M65.25 254.463c-2.608 1.172-2.7 1.54-.974 3.9 1.516 2.073 4.732 1.24 4.709-1.22-.027-2.878-1.286-3.781-3.735-2.68m162.038.338c-1.218.774-.675 5.199.638 5.199.38 0 1.526-.61 2.545-1.355 3.285-2.402.272-6.04-3.183-3.844M83 256.819c0 1.208 1.897 2.617 2.591 1.924.251-.252-.229-1.027-1.067-1.723-.95-.789-1.524-.865-1.524-.201m-25.82 3.431c.176 1.238.995 2.25 1.82 2.25.825 0 1.644-1.012 1.82-2.25.245-1.732-.174-2.25-1.82-2.25-1.646 0-2.065.518-1.82 2.25m162.41-1.396c-.993 1.607.553 4.265 2.286 3.931 2.13-.41 2.104-4.165-.033-4.577-.911-.175-1.925.116-2.253.646m6.079 5.431c-1.774 1.819-1.774 1.918 0 3.235 2.74 2.032 5.212-.456 3.203-3.223-1.342-1.847-1.412-1.848-3.203-.012m-162.974.499c-1.492 1.649-1.472 1.874.26 2.956 2.278 1.422 4.446-.531 3.455-3.113-.803-2.093-1.714-2.054-3.715.157m153.445 1.363c-2.295 3.675 1.763 6.176 4.138 2.551 1.37-2.09 1.312-2.344-.757-3.32-1.817-.858-2.456-.712-3.381.769m-163.118.811c-1.747 3.265 2.276 4.762 4.338 1.615 1.408-2.149 1.41-2.447.021-2.98-2.481-.952-3.247-.712-4.359 1.365" fill-rule="evenodd"/><path fill="#81100c" stroke="#81100c" d="M133.011 10.868c-4.77 5.014-9.475 6.623-15.011 5.132-7.052-1.899-13.284 1.565-17.359 9.648C98.967 28.969 92.12 33 88.152 33c-7.172 0-12.343 4.34-15.73 13.204-2.842 7.439-5.597 10.043-11.865 11.219-5.112.959-8.284 5.106-9.446 12.35-1.21 7.534-3.544 11.069-10.127 15.335-5.765 3.735-6.613 6.256-5.633 16.745l.618 6.616-5.061 5.124C21.11 123.515 24.662 136 37.284 136c4.449 0 5.163-.895 2.759-3.454-4.297-4.574-3.19-13.406 2.434-19.418l4.477-4.786-.227-8.256c-.222-8.078-.162-8.308 2.773-10.705 7.583-6.193 10.5-9.454 10.5-11.74C60 70.021 64.471 63 69.324 63c3.736 0 8.462-4.491 9.747-9.263 1.736-6.446 6.16-10.102 14.768-12.204 7.055-1.723 7.455-1.981 10.353-6.69 3.99-6.485 7.521-8.262 14.888-7.492 5.012.523 6.111.298 9.062-1.862 10.089-7.382 11.715-7.454 14.788-.654 1.775 3.925 2.605 3.965 4.544.215 2.064-3.992 1.919-8.36-.431-12.967-3.336-6.537-8.54-6.988-14.032-1.215m-12.912 27.018c-5.727 6.61-9.264 8.625-18.552 10.569-8.452 1.768-12.536 4.964-14.904 11.662-2.612 7.389-5.278 10.571-11.742 14.017-9.689 5.164-12.97 9.385-13.904 17.89-.633 5.772-1.412 8.054-3.875 11.35-9.881 13.228-10.4 14.275-10.895 21.992-.453 7.055-.38 7.361 1.901 7.972 4.267 1.142 4.497.855 4.558-5.666.081-8.566 3.087-13.907 9.814-17.436 17.294-9.072 36.295 7.394 28.46 24.663-1.097 2.419-1.848 4.546-1.668 4.726.18.18 7.5 1.475 16.268 2.877 8.767 1.403 27.083 4.374 40.702 6.603 13.619 2.23 25.163 3.906 25.654 3.724.727-.268-3.409-19.554-4.43-20.653-.165-.178-1.67.385-3.343 1.25-15.996 8.272-34.13-10.382-26.176-26.926 3.7-7.695 8.933-11.49 15.85-11.496 3.635-.003 4.239-.281 3.818-1.754-.275-.963-2.073-8.05-3.996-15.75a3652.74 3652.74 0 0 0-10.726-41.75l-.99-3.75h-16.725l-5.099 5.886m15.263-1.386c-.603 1.57-3.362 2.114-3.362.662 0-.461-1.575-.897-3.5-.97-6.407-.24-4.162 7.537 3.103 10.751 2.589 1.145 4.426 2.362 4.083 2.705-.343.342-1.737-.107-3.099-.999-2.175-1.425-8.587-1.408-8.587.024 0 2.955 8.557 6.37 10.669 4.258.588-.588 1.916-1.202 2.95-1.364 1.156-.181 1.761-.956 1.569-2.011-.172-.944.39-2.79 1.25-4.101 2.202-3.361 1.955-5.187-1.084-8.003-3.108-2.88-3.24-2.912-3.992-.952m-.92 7c.385 1.65 1.176 3.45 1.758 4 .739.698.847.094.358-2-.385-1.65-1.176-3.45-1.758-4-.739-.698-.847-.094-.358 2M102.5 52.861c-20.393 12.596-3.869 41.798 17.48 30.889 8.633-4.411 10.934-13.375 6.187-24.106-3.632-8.21-15.739-11.68-23.667-6.783M111 56c0 1.273.667 2 1.833 2 2.36 0 3.165-.841 2.491-2.598C114.475 53.19 111 53.671 111 56m22.562 4.25c-.206.688-.755 6.763-1.218 13.502l-.844 12.251 2.934-.001c11.023-.006 18.909-12.006 13.606-20.703-3.145-5.159-13.375-8.726-14.478-5.049m-35.44 1.103C96.906 62.818 97.596 64 99.667 64c1.489 0 1.825-2.578.446-3.43-.487-.301-1.383.051-1.991.783m20.048.817c.22 1.553.997 2.33 2.33 2.33 2.978 0 2.681-3.904-.33-4.33-1.939-.275-2.275.061-2 2m-12.018-.264c-1.818 1.124-1.055 4.489 1.113 4.906.957.185 2.026-.407 2.375-1.316.818-2.132-1.683-4.706-3.488-3.59m30.515 1.761c-1.417 1.416-.568 2.436 1.484 1.785 1.711-.543 2.025-.352 1.532.933-.395 1.027-.095 1.615.824 1.615 1.106 0 1.233.555.541 2.373-.605 1.591-.514 2.789.275 3.636.931.999.706 1.15-1.073.721-2.355-.568-3.165.734-1 1.608.688.277.182.54-1.122.583-1.899.063-2.145.354-1.229 1.457.903 1.089.667 1.512-1.128 2.016-2.042.574-2.098.74-.559 1.651 7.087 4.191 13.38-9.877 7.336-16.399-2.4-2.589-4.548-3.312-5.881-1.979m-25.259 6.711c-.809 2.109.327 3.622 2.721 3.622 1.51 0 1.931-.557 1.691-2.24-.373-2.614-3.556-3.611-4.412-1.382m-12.967.718c-.373.603.007 1.781.845 2.618 1.822 1.823 3.714.92 3.714-1.773 0-2.124-3.382-2.751-4.559-.845m21.923 2.397c-.346.903-.15 2.121.436 2.707 1.524 1.524 4.41.131 4.012-1.935-.443-2.302-3.647-2.858-4.448-.772m-46.079 4.983c-3.838 1.669-5.054 5.254-3.254 9.6 1.193 2.879 1.083 3.183-2.122 5.859-3.057 2.552-3.284 3.097-2.376 5.694 1.38 3.948 5.529 4.451 7.824.949 1.383-2.111 2.17-2.423 4.795-1.898 2.97.594 3.113.485 2.633-2.026-.542-2.834.882-3.685 1.868-1.117.324.846-.21 2.421-1.187 3.5-1.732 1.915-1.691 1.963 1.705 1.963 7.976 0 10.115-8.436 4.348-17.15-3.907-5.904-8.782-7.744-14.234-5.374M105 80.441c0 2.054 2.07 3.063 3.046 1.485.452-.732.6-1.689.329-2.128-.84-1.36-3.375-.877-3.375.643m-52 .618c0 .582.45.781 1 .441s1-.816 1-1.059S54.55 80 54 80s-1 .477-1 1.059m61 .441c0 1.03.655 1.52 1.75 1.31 2.108-.406 1.975-2.181-.197-2.633-.906-.189-1.553.362-1.553 1.323m14 .5c0 .55.423 1 .941 1s1.219-.45 1.559-1c.34-.55-.084-1-.941-1S128 81.45 128 82m19.667.667c-.367.366-.667 1.765-.667 3.108 0 2.077-.358 2.352-2.396 1.841-4.707-1.182-3.756 4.398.989 5.801 2.647.782 7.407-2.788 7.407-5.555 0-4.166-3.223-7.305-5.333-5.195M74 87.347c2.745 1.446 3.553 1.357 2.541-.28-.362-.587-1.645-1.06-2.85-1.052-2.101.014-2.089.068.309 1.332m25.984 4.516C88.04 98.25 93.759 115 107.885 115c4.02 0 4.129-.95 1.488-13-1.265-5.775-2.317-10.838-2.337-11.25-.064-1.336-3.48-.796-7.052 1.113m30.235 1.363c-2.222 2.222-2.231 2.222-5.762.321-7.078-3.812-12.055 1.178-9.541 9.567 3.605 12.033 19.332 14.227 17.756 2.476-.487-3.633-.219-4.323 2.601-6.677 3.104-2.591 3.123-2.66 1.413-5.269-2.114-3.226-3.566-3.32-6.467-.418m-30.11 3.362C95.881 101.963 99.018 112 104.926 112c1.626 0 3.234-.45 3.574-1 .34-.55-.132-1-1.048-1-1.07 0-1.46-.537-1.09-1.5.356-.93-.005-1.5-.952-1.5-.841 0-1.25-.45-.91-1 .34-.55-.035-1-.833-1-1.692 0-3.332-5.278-1.799-5.789.561-.187.742-1.064.402-1.949-.469-1.223-.195-1.447 1.14-.935 1.137.436 1.617.255 1.361-.514-.739-2.216-2.545-1.916-4.662.775m21.961-.338c-.038 1.513.38 2.75.93 2.75 1.174 0 1.174-.769 0-3.5-.762-1.772-.867-1.687-.93.75m31.293 5.247c-.346.901-.167 2.099.398 2.664 1.63 1.63 4.739.531 4.739-1.675 0-2.543-4.228-3.358-5.137-.989m8.716.086c.048 1.165.285 1.402.604.605.289-.722.253-1.585-.079-1.917-.332-.332-.568.258-.525 1.312M127 104.378c0 .997.835 1.622 2.167 1.622 1.191 0 1.979-.127 1.75-.283a93.003 93.003 0 0 1-2.167-1.622c-1.498-1.147-1.75-1.106-1.75.283m16.336.189c-.331.862-.122 2.047.464 2.633 1.555 1.555 4.2.19 4.2-2.169 0-2.466-3.753-2.839-4.664-.464m20.743 4.016c.048 1.165.285 1.402.604.605.289-.722.253-1.585-.079-1.917-.332-.332-.568.258-.525 1.312m-97.743 3.984c-.91 2.372 1.223 4.044 3.134 2.458 1.184-.983 1.284-1.616.42-2.658-1.498-1.804-2.813-1.73-3.554.2m98.75-.567c-.031.825.381 2.175.914 3 1.181 1.828 1.181.249 0-2.5-.567-1.319-.878-1.489-.914-.5m-7.39 1.35c-.834 2.174 1.692 5.099 3.73 4.317 2.452-.941 1.658-5.084-1.049-5.47-1.167-.166-2.374.352-2.681 1.153M147 115.393c0 2.853 2.802 4.233 4.714 2.321 1.912-1.912.532-4.714-2.321-4.714-1.857 0-2.393.536-2.393 2.393m-64.299 2.239c-1.714 1.714-.682 4.504 1.549 4.188 1.471-.209 2.25-1.008 2.25-2.306 0-1.984-2.472-3.208-3.799-1.882m-11.596 1.741c-1.666 2.008-.245 4.789 2.262 4.43 2.456-.352 3.454-3.668 1.481-4.918-1.853-1.175-2.425-1.1-3.743.488m95.981-.726c-.047.631 1.955 8.902 4.45 18.381 2.495 9.478 4.29 17.479 3.99 17.779-.53.53-9.693-.518-29.769-3.406-10.347-1.488-12.345-1.655-11.668-.978.233.232 8.52 1.609 18.417 3.059 9.897 1.45 18.421 3.06 18.944 3.577.593.588-18.83.941-51.75.941-50.736 0-52.7-.069-52.7-1.862 0-1.025-1.326-3.531-2.946-5.571l-2.947-3.707-4.553 4.197c-2.505 2.309-4.554 3.69-4.554 3.07 0-.62-.675-1.127-1.5-1.127-2.458 0-1.704-1.96 1.25-3.25 2.53-1.104 2.151-1.242-4.75-1.725l-7.5-.525-.296 4.569-.296 4.568-8.704-.068-8.704-.069-.307-4.25c-.291-4.011-.481-4.25-3.379-4.25h-3.072l.664 5 .663 5h-3.035c-2.03 0-3.034.496-3.034 1.5 0 2.71 28.95 2.155 32.097-.615 4.953-4.36 6.995-5.354 7.922-3.854 1.018 1.647.363 2.969-1.471 2.969-.734 0-1.593.675-1.91 1.5-.508 1.326 9.11 1.5 82.893 1.5 73.528 0 83.469-.179 83.469-1.5 0-1.276-2.595-1.5-17.356-1.5h-17.357l-1.612-6.25c-4.929-19.111-9.464-34.766-9.589-33.103M59.347 120.51c-1.442 1.072-1.612 1.756-.776 3.122 1.501 2.449 2.939 2.715 4.77.884 2.984-2.983-.572-6.549-3.994-4.006m43.903-.391c-3.905 1.127-4.037 1.631-.75 2.881 2.688 1.022 3.406 3 1.089 3-1.674 0-6.589 5.579-6.589 7.479 0 1.965 5.759 3.72 8.099 2.468 1.642-.879 1.901-.662 1.901 1.585 0 2.24.314 2.505 2.25 1.903 1.237-.385 2.392-1.065 2.565-1.511.173-.446.902-.586 1.621-.31 1.74.668 2.724-2.049 2.911-8.039.257-8.272-4.729-11.872-13.097-9.456m22.594 2.136c-9.686 8.188-4.29 20.745 8.915 20.745 9.065 0 9.499-1.458 3.318-11.139a7007.337 7007.337 0 0 1-6.449-10.111c-1.458-2.3-2.582-2.202-5.784.505M141 122c0 1.506.522 2.046 1.75 1.81.963-.186 1.75-1 1.75-1.81s-.787-1.624-1.75-1.81c-1.228-.236-1.75.304-1.75 1.81m-33.5 3c-1.832.787-1.79.864.5.914 1.375.031 3.175-.381 4-.914 1.968-1.272-1.54-1.272-4.5 0m42.862.5c-.317.825-.305 2.207.027 3.07.825 2.152 4.996 1.425 5.449-.95.602-3.155-4.344-5.07-5.476-2.12m-23.685.25c-3.951 6.713 2.575 16.659 9.749 14.858 2.764-.694 3.552-2.608 1.074-2.608-.825 0-1.5-.498-1.5-1.107s-.652-.857-1.449-.551c-1.036.398-1.268.072-.813-1.143.559-1.491.427-1.529-1.075-.306-2.086 1.697-3.414.717-1.748-1.29.999-1.204.814-1.361-1.108-.938-1.843.406-2.005.293-.807-.563 1.083-.773 1.14-1.076.206-1.087-1.672-.019-1.146-3.158.794-4.733 1.286-1.044 1.187-1.223-.691-1.25-1.205-.018-2.39.306-2.632.718m35.769.337c-.941 1.523 1.103 3.3 2.97 2.584.898-.345 1.302-1.242.96-2.133-.682-1.779-2.949-2.039-3.93-.451m-79.294 1.798c-2.025 1.283-.95 4.57 1.613 4.935 2.687.383 4.006-2.186 2.224-4.333-1.414-1.704-1.963-1.79-3.837-.602m26.463 1.58c-.888 1.355-1.615 2.761-1.615 3.122 0 1.033 3.003-1.723 4.09-3.755 1.478-2.763-.598-2.232-2.475.633m-39.604 1.022c-1.468 1.769-.656 4.513 1.335 4.513 2.465 0 4.095-2.764 2.654-4.5-1.565-1.886-2.433-1.889-3.989-.013m-12.31 2.145c-1.367 1.367-.673 2.503 1.339 2.188 1.121-.176 2.045-.77 2.052-1.32.017-1.217-2.418-1.84-3.391-.868m103.958 7.453c-1.695 1.98-1.904 2.003-3.665.409-2.278-2.061-3.994-1.198-3.994 2.008 0 2.568 3.317 5.498 6.223 5.498 2.81 0 5.94-3.771 5.588-6.733-.403-3.383-1.902-3.81-4.152-1.182M60.048 141.91c-.889 1.662-.742 1.943.95 1.815 2.067-.156 2.727-2.159 1.052-3.194-.522-.323-1.423.298-2.002 1.379m-36.796 8.59c.011 2.2.216 2.982.455 1.738.239-1.244.23-3.044-.02-4s-.446.062-.435 2.262m3 0c.011 2.2.216 2.982.455 1.738.239-1.244.23-3.044-.02-4s-.446.062-.435 2.262m6.827-1.917c.048 1.165.285 1.402.604.605.289-.722.253-1.585-.079-1.917-.332-.332-.568.258-.525 1.312m90.19.11c.973.254 2.323.237 3-.037.677-.274-.119-.481-1.769-.461-1.65.02-2.204.244-1.231.498m7.544.99c.721.289 1.584.253 1.916-.079.332-.332-.258-.568-1.312-.525-1.165.048-1.402.285-.604.604m-100.734 2.9c.048 1.165.285 1.402.604.605.289-.722.253-1.585-.079-1.917-.332-.332-.568.258-.525 1.312m3 0c.048 1.165.285 1.402.604.605.289-.722.253-1.585-.079-1.917-.332-.332-.568.258-.525 1.312M13 191.941C13 211.89 13.335 221 14.069 221c.726 0 1.022-6.316.925-19.75-.226-31.107-.218-31.25 1.591-31.25 1.319 0 1.529 1.093 1.25 6.502-.184 3.576-.11 6.501.165 6.499.275-.002.352 8.547.172 18.998L17.844 221l7.828-.022 7.828-.021 1.5-3.229c.825-1.775 2.474-3.655 3.664-4.178 1.876-.824 2.245-2.02 2.775-9 .336-4.427.87-11.087 1.188-14.8.566-6.633.534-6.75-1.845-6.75-1.336 0-3.395-1.12-4.595-2.5-3.769-4.335-4.183-3.241-4.257 11.25-.039 7.563-.463 14.65-.944 15.75-.534 1.223-.798-4.41-.679-14.5.19-16.283.223-16.504 2.443-16.82 1.33-.188 2.25-1.017 2.25-2.027 0-.939.701-2.708 1.557-3.93.856-1.223 1.157-2.223.669-2.223-.489 0-1.49-1.125-2.226-2.5-1.252-2.34-1.839-2.5-9.169-2.5-4.554 0-7.831.418-7.831 1 0 .55 1.364 1 3.031 1 3.11 0 4.739 1.945 3.419 4.081-.52.841-.986.713-1.638-.453-.609-1.087-2.26-1.628-4.969-1.628-3.156 0-3.932-.326-3.494-1.468.31-.807.133-1.734-.393-2.059-.6-.371-.956 10.235-.956 28.468m27.412-26.779c-1.888 2.15-1.887 2.167.088 1.346 4.509-1.875 8.956-1.714 11.406.411 1.793 1.555 3.765 2.081 7.797 2.081 5.914 0 10.652 1.926 12.297 4.999 1.024 1.915 2.369 1.987 41.779 2.24l40.721.261.3 6.958c.166 3.827.783 7.54 1.373 8.25.773.932.705 1.734-.242 2.876-.723.871-1.612 4.808-1.976 8.75l-.662 7.166-.146-6.083c-.19-7.888-.253-7.911-6.135-2.242-4.623 4.457-5.387 4.825-10.009 4.825H132v3.545c0 4.541-3.435 8.103-8.638 8.955-2.124.348-4.537.782-5.362.963-.825.181 8.063.347 19.75.369l21.25.039v-14.995c0-9.741-.35-14.778-1-14.376-1.386.857-1.258-.842.172-2.272.78-.78 1.143-5.286 1.084-13.45l-.088-12.278-58.422-.258-58.422-.258-1.912 2.178M162 170.089v7.089l6.25-.536c8.61-.738 8.649-.749 9.295-2.784.652-2.053 10.462-8.972 11.667-8.227 1.528.944.764 2.369-1.271 2.369-1.132 0-1.781.45-1.441 1 .34.55-.335 1-1.5 1s-1.852.431-1.526.957c.325.527-.773 1.664-2.441 2.526-5.423 2.804-3.504 3.517 9.467 3.517H203v-3.583c0-2.427.403-3.446 1.25-3.159.688.234 1.25 1.734 1.25 3.334v2.908l7.5.213c5.029.142 6.81-.075 5.405-.661-1.322-.551-2.933-3.116-4.371-6.962-2.063-5.515-2.55-6.09-5.156-6.09-1.583 0-2.878.45-2.878 1s1.125 1 2.5 1c2 0 2.5.5 2.5 2.5 0 2.75-1.454 3.366-2.362 1-.361-.941-1.89-1.5-4.107-1.5-1.942 0-3.531-.45-3.531-1s.477-1 1.059-1 .781-.45.441-1c-.379-.613-8.344-1-20.559-1H162v7.089m-120.834.507c-1.706 1.195-2.201 2.387-1.972 4.742.36 3.7 3.003 4.699 5.781 2.185 1.902-1.722 3.396-.772 2.574 1.637-.251.737-.944 8.315-1.54 16.84-1.412 20.214-1.582 21-4.539 21-2.701 0-4.439 2.401-3.723 5.142.869 3.323 3.972 2.301 3.466-1.142-.687-4.685 5.324-3.636 7.061 1.232.249.697.834.91 1.301.473.467-.438.243-1.767-.499-2.954-1.195-1.915-1.107-2.319.788-3.577 1.801-1.196 2.136-2.395 2.136-7.656 0-13.72.512-14.999 6.803-16.982C74.084 186.719 74.008 173 58.7 173c-5.12 0-6.75-.397-8.2-2-2.18-2.408-6.222-2.583-9.334-.404m.344 3.388c-.737 1.193.199 3.016 1.549 3.016 1.217 0 1.225-2.707.01-3.457-.512-.317-1.213-.118-1.559.441m14.086 3.861c-1.601 2.59-1.795 9.155-.271 9.155 5.042 0 8.097-3.627 6.558-7.787-.822-2.223-5.174-3.169-6.287-1.368m18.827 1.065c-.232.233-.425 1.361-.427 2.507-.002 1.146-.885 3.529-1.963 5.297-2.482 4.07-2.19 4.193 7.467 3.161 35.897-3.837 36.769-3.991 39.795-7.016 1.572-1.573 3.274-2.859 3.782-2.859s.923-.466.923-1.036c0-.998-48.58-1.051-49.577-.054m65.175-.069c-.317.513.094 1.488.913 2.168.904.75 1.489 2.957 1.489 5.613 0 3.963.229 4.378 2.417 4.378 1.468 0 3.182 1.051 4.368 2.68l1.952 2.679 1.177-2.198c.671-1.253 1.05-5.093.881-8.93l-.295-6.731-6.163-.295c-3.389-.163-6.422.124-6.739.636M162 182c0 1.65.45 3 1 3s1-.675 1-1.5.589-1.5 1.309-1.5 2.182-.661 3.25-1.468c1.806-1.366 1.645-1.471-2.309-1.5-4.063-.031-4.25.1-4.25 2.968m11.478-1.559c-1.785 1.349-.536 1.499 12.772 1.527L201 182v33h-6v-25h-14.671c-11.987 0-14.992-.29-16.423-1.585-1.661-1.504-1.756-.704-1.856 15.596l-.105 17.181 18.416-.346c24.251-.456 22.683 1.181 22.369-23.346l-.23-18-13.522-.277c-10.771-.22-13.925.028-15.5 1.218m31.941-.091c-.306.797-.413 8.874-.238 17.948.286 14.81.524 16.73 2.319 18.77 1.832 2.081 1.846 2.215.166 1.601-1.231-.45-1.697-.26-1.419.58.511 1.545 19.274 2.477 35.253 1.751 8.781-.399 10.597-.724 9-1.611-3.333-1.852-16.499-5.508-17.533-4.869-.607.375-.967-5.188-.967-14.942v-15.54l-2.513-.631c-3.73-.936-5.487 1.108-5.487 6.382 0 5.611-.673 5.006-3.962-3.563l-2.582-6.726-5.74-.3c-4.298-.225-5.88.064-6.297 1.15m-80.134 2.607c-6.07 2.756-7.355 9.043-1.848 9.043 2.464 0 5.32-2.576 4.151-3.745-.383-.383-1.115-.035-1.627.774s-.937.995-.946.412c-.035-2.455 2.647-4.683 4.811-3.996 4.269 1.355 2.784 5.194-3.349 8.655-6.954 3.924-8.606 6.568-5.617 8.988l2.126 1.721-3.077 1.073c-2.785.971-3.014 1.365-2.402 4.151l.676 3.078-5.341-.306c-4.457-.254-5.389-.636-5.627-2.305-.262-1.836 4.651-10.086 9.966-16.734 1.202-1.503 1.877-3.042 1.5-3.418-1.182-1.182-23.776 1.484-26.236 3.096-3.526 2.31-4.142 5.573-1.461 7.744 4.268 3.457 9.068.701 7.482-4.296-.572-1.802-.267-1.996 2.686-1.712 4.879.469 4.69 2.648-1.049 12.15-7.241 11.988-7.269 12.112-2.514 11.217 2.151-.405 9.477-1.317 16.281-2.026 12.683-1.323 14.099-1.928 14.099-6.021 0-2.454-.991-4.032-2.969-4.727-.962-.337-.423-.775 1.5-1.219 1.65-.381 4.038-1.113 5.307-1.628 1.468-.595 2.987-.571 4.178.066 3.429 1.835 9.015-1.664 9.015-5.647 0-3.082-3.318-3.156-5.443-.122-1.801 2.57-1.867 2.261-1.582-7.392.27-9.141-3.361-11.109-12.69-6.874M207 185.945c0 3.279.354 4.055 1.85 4.055 2.542 0 7.533 11.625 6.595 15.362-.432 1.722-.257 2.638.506 2.638.642 0 .889-.45.549-1-.34-.55-.35-1-.023-1 .327 0 1.462 2.025 2.523 4.5 2.394 5.584 5 6.071 5 .934 0-1.961.466-4.436 1.035-5.5.829-1.549.707-1.934-.616-1.934-1.146 0-1.496-.598-1.142-1.952.281-1.074.2-2.086-.18-2.25-.38-.164-2.046-4.123-3.702-8.798l-3.01-8.5-4.693-.305-4.692-.305v4.055M59.808 193.62c-1.632 1.633-.733 7.38 1.155 7.38 2.022 0 6.037-4.371 6.037-6.573 0-2.943-4.545-3.453-7.192-.807m14.884.423c-5.483.921-7.692 2.38-7.692 5.079 0 2.47 3.04 2.439 3.688-.037.612-2.339 4.979-3.607 6.908-2.006 1.999 1.659 1.857 2.152-2.596 9.042-4.459 6.899-5.064 9.352-2.075 8.403 1.059-.336 6.281-.979 11.605-1.428 10.039-.847 11.725-1.688 11.226-5.596-.198-1.546-1.137-2.072-4.136-2.318-3.685-.302-3.855-.19-3.388 2.25.466 2.44.273 2.568-3.871 2.568-5.68 0-5.66-1.363.139-9.659 2.475-3.54 4.5-6.64 4.5-6.889 0-.687-8.886-.32-14.308.591m52.558 2.631c-2.602 1.815-2.933 4.127-.713 4.979 1.937.743 5.463-2.361 5.463-4.808 0-2.227-1.714-2.288-4.75-.171M94 198c0 1.289.506 1.998 1.25 1.75.688-.229 1.25-1.017 1.25-1.75 0-.733-.562-1.521-1.25-1.75-.744-.248-1.25.461-1.25 1.75m129.693 1.077c2.168 3.691 4.307 5.701 4.307 4.045 0-.617.787-1.136 1.75-1.154 1.667-.03 1.667-.095 0-1.36-.963-.731-1.75-1.896-1.75-2.591 0-1.004-.304-1.009-1.488-.027-1.205 1-1.606.929-2.107-.377-.341-.887-1.046-1.613-1.569-1.613-.522 0-.136 1.385.857 3.077m-167.47 4.48c-2.527 1.769-3.074 6.443-.754 6.443.847 0 1.241-.592.931-1.399-.295-.769-.052-1.698.541-2.064 1.73-1.069 4.799.361 5.357 2.496.283 1.082 1.007 1.967 1.608 1.967 1.389 0 1.424-1.678.053-2.525-.572-.354-.749-1.562-.393-2.684 1.148-3.616-3.396-4.999-7.343-2.234M91 208c0 .55.45 1 1 1s1-.45 1-1-.45-1-1-1-1 .45-1 1m121 1.5c1.292 1.375 3.045 2.5 3.897 2.5 1.104 0 .905-.45-.691-1.568-1.232-.863-1.98-1.988-1.664-2.5.317-.513-.429-.932-1.657-.932h-2.234l2.349 2.5m-91.771.688c.618 1.854 2.771 2.161 2.771.395 0-.87-.713-1.583-1.583-1.583-.871 0-1.406.534-1.188 1.188M59 210.95c0 .523.788 1.423 1.75 2 1.629.977 1.598 1.179-.448 2.918-4.487 3.814-4.213 11.45.476 13.244 6.323 2.42 13.593-3.124 10.512-8.017-1.582-2.513-4.738-2.8-3.405-.31.821 1.534.658 2.319-.746 3.589-2.812 2.545-3.139 2.052-3.139-4.719 0-4.877-.423-6.728-1.829-8-2.059-1.864-3.171-2.111-3.171-.705m149.2.25c-1.875 1.875-1.425 2.8 1.359 2.8 1.451 0 2.292.433 1.941 1-.34.55-.141 1 .441 1s1.059-.952 1.059-2.117c0-1.651-.457-1.997-2.079-1.573-1.518.397-1.931.159-1.531-.883.668-1.741.379-1.796-1.19-.227m-132.078 6.704c-2.822 1.787.112 3.096 6.937 3.096 6.274 0 6.941-.192 6.941-2 0-1.788-.662-1.998-6.25-1.985-3.437.009-6.87.408-7.628.889m-60.181 4.537c-.318 3.024-.057 12.776.353 13.186.29.291.681-2.475.867-6.147.187-3.672.002-6.884-.411-7.137-.413-.254-.776-.209-.809.098m28.624.454c-.305.493.119 1.153.941 1.469.907.348 1.494-.003 1.494-.895 0-1.618-1.563-1.986-2.435-.574m-21.815.811c1.238.238 3.262.238 4.5 0 1.238-.239.225-.434-2.25-.434s-3.488.195-2.25.434m58.018.019c1.797.222 4.497.218 6-.01 1.503-.229.032-.411-3.268-.405-3.3.005-4.529.192-2.732.415m15.398-.225c.667.667 94.98.688 95.646.021.287-.287-21.229-.521-47.812-.521s-48.109.225-47.834.5m106.833.25c-.001.84 27.949.635 28.795-.211.297-.296-6.061-.539-14.127-.539-8.067 0-14.667.338-14.668.75m33.251-.022c2.063.216 5.438.216 7.5 0 2.063-.215.375-.392-3.75-.392s-5.812.177-3.75.392m-68 3.988c1.512.229 3.988.229 5.5 0s.275-.416-2.75-.416-4.262.187-2.75.416M142 229.059c0 .582.45.781 1 .441s1-.816 1-1.059-.45-.441-1-.441-1 .477-1 1.059m111 6.441c0 5.554.61 6.49 2.8 4.3 2.432-2.432.928-9.8-2-9.8-.44 0-.8 2.475-.8 5.5m-195.481-1.756c-2.739.212-5.214.715-5.5 1.118-.285.404-2.632 1.954-5.214 3.446-2.582 1.491-6.171 4.767-7.974 7.278-1.804 2.512-3.43 4.116-3.614 3.565-.509-1.526 3.542-8.917 5.482-10.002 1.168-.654-2.326-.985-10.993-1.042-14.075-.093-14.377.08-11.322 6.489 2.959 6.208 2.942 8.404-.065 8.404-2.115 0-2.452-.267-1.519-1.2 1.677-1.677 1.498-3.128-.3-2.438-1.801.691-1.966-.496-.3-2.162.933-.933.156-1.2-3.5-1.2H8v12h4.5c3.833 0 4.5.296 4.5 2 0 1.738-.667 2-5.083 2-6.574 0-6.271 2.368.359 2.803C17.388 265.138 21 262.735 21 259c0-1.467.667-2 2.5-2 2.551 0 3.452 1.516 1.323 2.226-2.874.958.731 2.774 5.507 2.774h5.212l1.128-5.934c4.033-21.219 31.775-25.283 41.58-6.09 1.513 2.96 2.75 6.877 2.75 8.703V262h73.05l.95-2.5c.523-1.375 1.637-2.5 2.475-2.5 1.26 0 1.525-1.654 1.525-9.5V238H73.594l3.705 3.794c2.1 2.151 4.536 6.158 5.623 9.25l1.918 5.456 7.83.719c12.397 1.139 12.674 1.556.939 1.413l-10.891-.132-1.209-4.765c-.72-2.843-2.818-6.676-5.199-9.5-3.414-4.051-5.663-5.69-11.81-8.608-.568-.27-.352-.933.5-1.536 1.255-.887 1.174-1.033-.5-.895-1.1.09-4.241.337-6.981.548M160 234c0 .55.45 1 1 1s1-.45 1-1-.45-1-1-1-1 .45-1 1m42.459.067c-1.076 1.741.149 2.11 1.521.457.789-.95.865-1.524.201-1.524-.584 0-1.36.48-1.722 1.067M229 234c0 .55.45 1 1 1s1-.45 1-1-.45-1-1-1-1 .45-1 1m-14.5 1.092c-.55.545-3.118 2.3-5.706 3.9-4.947 3.057-9.421 9.074-11 14.793-.517 1.872-1.13 3.212-1.363 2.979-.962-.962 2.762-10.731 5.565-14.6 2.203-3.041 2.61-4.164 1.51-4.164-.828 0-1.506.495-1.506 1.099 0 .83-5.396 10.5-7.709 13.818-.16.229-.545.162-.855-.148-.31-.31 1.033-3.736 2.986-7.614l3.55-7.049-18.986-.033L162 238.04v18.702l7.25.868 7.25.868-6.818.308c-4.76.216-6.696.671-6.417 1.511.288.866 5.587 1.279 18.925 1.475l18.526.271.574-5.563c.728-7.05 3.151-11.19 8.765-14.972 12.583-8.475 31.594 1.022 31.372 15.671-.059 3.9.252 4.821 1.628 4.821 3.078 0 4.134-2.409 2.462-5.615-.828-1.587-1.507-3.485-1.511-4.218-.01-2.218 2.398-.693 3.012 1.907.486 2.063 1.165 2.426 4.527 2.426h3.955V250c0-6.257-.097-6.511-2.601-6.802-2.168-.252-2.524-.711-2.134-2.75.468-2.447.465-2.448-8.327-2.448-8.362 0-15.438-1.467-15.438-3.201 0-1.153-11.309-.888-12.5.293M12 240.5c0 1.375.45 2.5 1 2.5s1-1.125 1-2.5-.45-2.5-1-2.5-1 1.125-1 2.5m226.5 1.5c.34.55 1.068 1 1.618 1s.722-.45.382-1c-.34-.55-1.068-1-1.618-1s-.722.45-.382 1m-184.635.663c-10.516 1.785-16.461 18.073-9.94 27.232 3.838 5.39 17.501 10.263 15.713 5.605-.391-1.02.054-1.5 1.393-1.5 1.117 0 1.969.675 1.969 1.559 0 .857.408 1.307.906.999.498-.308.671-1.46.383-2.559-.292-1.117-.03-1.999.594-1.999.615 0 1.117.675 1.117 1.5s.423 1.5.941 1.5c1.469 0 2.526-2.277 2.206-4.754-.176-1.361.354-2.501 1.338-2.879.949-.364 1.387-1.257 1.05-2.137-.47-1.223-.302-1.282.872-.307 1.81 1.502 3.605-1.316 3.571-5.607-.081-10.377-10.933-18.55-22.113-16.653m162.466.254c-7.954 2.002-12.877 9.491-12.133 18.458 1.837 22.152 34.651 20.298 34.166-1.93-.255-11.635-10.61-19.404-22.033-16.528M52.314 249.95c-6.387 3.894-7.365 11.645-2.21 17.515 3.581 4.08 6.032 4.469 8.14 1.294 1.375-2.07 1.69-2.132 4.151-.815 3.238 1.733 7.139-.81 4.812-3.137-1.871-1.871-1.431-4.936.793-5.517 3.013-.788 2.426-3.099-1.882-7.408-4.51-4.51-8.631-5.086-13.804-1.932M91 249.622c0 1.329.271 1.398 1.5.378.825-.685 1.5-1.415 1.5-1.622 0-.208-.675-.378-1.5-.378s-1.5.73-1.5 1.622m125.096-.357c-7.219 3.71-8.718 12.435-3.127 18.203 3.909 4.034 6.187 4.436 8.172 1.446 1.237-1.863 1.683-1.951 4.159-.823 4.161 1.896 7.021-.974 4.142-4.155-1.905-2.105-1.901-2.146.317-3.942 6.84-5.539-5.265-15.045-13.663-10.729M61 252.441c0 1.936 1.444 2.71 3.55 1.901 1.62-.621 1.614-.749-.101-2.003-2.364-1.728-3.449-1.696-3.449.102m31.904.174c-1.16 1.398-1.086 1.566.545 1.25 1.037-.201 2.073-.927 2.301-1.615.594-1.784-1.26-1.546-2.846.365m130.666-.728c-.988 1.598 2.344 3.599 3.714 2.229.932-.932.867-1.409-.292-2.142-1.879-1.188-2.728-1.21-3.422-.087M52.2 253.2c-1.763 1.763-1.467 2.8.8 2.8 1.333 0 2-.667 2-2 0-2.267-1.037-2.563-2.8-.8m162.3.8c-1.733 1.915-1.182 2.581 1.75 2.118.412-.065.75 1.447.75 3.359 0 4.931 3.813 7.531 7.5 5.115 4.863-3.187 1.108-10.872-4.451-9.108-1.614.513-2.049.212-2.049-1.417 0-2.606-1.181-2.629-3.5-.067m-158.929 2.571c-4.506 4.506 1.179 11.523 6.236 7.697 2.906-2.197 3.049-4.609.448-7.518-1.942-2.172-4.619-2.243-6.684-.179m164.679 1.147c-.687.247-1.25 1.566-1.25 2.932 0 2.988 5.239 3.139 5.802.167.348-1.838-2.556-3.814-4.552-3.099m-163.887 1.779c-.346.901-.167 2.099.398 2.664 1.63 1.63 4.739.531 4.739-1.675 0-2.543-4.228-3.358-5.137-.989m-6.512 4.629c1.175 3.177 3.408 3.735 2.983.746-.184-1.294-1.119-2.501-2.079-2.684-1.428-.272-1.592.079-.904 1.938M212 262.492c0 1.409 2.134 4.508 3.105 4.508 1.757 0 .502-4.459-1.355-4.813-.963-.184-1.75-.046-1.75.305m-141.044 6.061c-.786.948-.915 1.888-.339 2.464.577.577 1.393.197 2.138-.996 1.475-2.362-.035-3.594-1.799-1.468" fill-rule="evenodd"/></svg>